<svg width="727" height="775" viewBox="0 0 727 775" fill="none" xmlns="http://www.w3.org/2000/svg">
<path d="M630.795 153.693L713.718 -73.9482H762.346C753.481 -51.4131 744.622 -28.884 735.765 -6.35968C706.301 68.5683 676.858 143.444 647.281 218.32H645.903H613.367L546.19 51.4928H594.233L629.853 153.687L630.315 155.012L630.795 153.693ZM742.993 215.8H697.03V169.831H742.993V215.8Z" stroke="#00A4C0"/>
<path d="M664.447 283.947L581.524 511.589H532.896C541.76 489.056 550.618 466.529 559.474 444.007C588.939 369.077 618.383 294.199 647.961 219.32H649.339H681.875L749.052 386.148H701.009L665.389 283.954L664.927 282.629L664.447 283.947ZM552.249 221.955H598.211V267.924H552.249V221.955Z" stroke="#EAD900"/>
<path d="M616.821 662.103L699.744 434.461H748.372C739.508 456.993 730.65 479.52 721.794 502.041C692.329 576.972 662.885 651.851 633.307 726.73H631.929H599.393L532.216 559.902H580.259L615.879 662.096L616.341 663.421L616.821 662.103ZM729.019 724.095H683.057V678.126H729.019V724.095Z" stroke="#00A4C0"/>
<path d="M650.473 792.356L567.55 1020H518.922C527.787 997.465 536.645 974.938 545.501 952.416C574.965 877.486 604.409 802.608 633.987 727.729H635.365H667.901L735.079 894.557H687.036L651.415 792.363L650.954 791.038L650.473 792.356ZM538.275 730.364H584.238V776.333H538.275V730.364Z" stroke="#00A4C0"/>
<path d="M419.35 496.681L502.273 269.039H550.9C542.016 291.622 533.139 314.199 524.263 336.772C494.818 411.652 465.394 486.48 435.836 561.308H434.458H401.922L334.744 394.48H382.787L418.408 496.674L418.869 497.999L419.35 496.681ZM531.662 558.673H485.7V512.704H531.662V558.673Z" stroke="#00A4C0"/>
<path d="M453.117 626.935L370.194 854.576H321.566C330.43 832.043 339.288 809.516 348.145 786.994C377.609 712.064 407.053 637.186 436.631 562.308H438.009H470.545L537.722 729.135H489.679L454.059 626.941L453.597 625.616L453.117 626.935ZM340.804 564.942H386.767V610.911H340.804V564.942Z" stroke="#EAD900"/>
</svg>
