<svg width="0" height="0" class="hidden">
    <symbol id="close" viewBox="0 0 30 30" fill="none" xmlns="http://www.w3.org/2000/svg" >
        <path d="M8.22285 6.46973C7.73847 5.98535 6.95314 5.98535 6.46875 6.46973C5.98437 6.95411 5.98437 7.73945 6.46875 8.22383L13.2452 15.0003L6.46875 21.7767C5.98437 22.2611 5.98437 23.0464 6.46875 23.5308C6.95314 24.0152 7.73847 24.0152 8.22285 23.5308L14.9993 16.7544L21.7757 23.5308C22.2601 24.0152 23.0454 24.0152 23.5298 23.5308C24.0142 23.0464 24.0142 22.2611 23.5298 21.7767L16.7534 15.0003L23.5298 8.22383C24.0142 7.73945 24.0142 6.95411 23.5298 6.46973C23.0454 5.98535 22.2601 5.98535 21.7757 6.46973L14.9993 13.2462L8.22285 6.46973Z" fill="black"></path>
    </symbol>

    <symbol id="logo" xmlns="http://www.w3.org/2000/svg" viewBox="0 0 128 50" fill="none">
        <path fill-rule="evenodd" clip-rule="evenodd" d="M105.986 30.3198H102.586L95.5362 12.9766H100.669L104.379 23.5547L112.974 0H118.168C114.149 10.0861 110.191 20.1722 106.172 30.3198H105.986ZM111.243 25.2153V30.0738H116.128V25.2153H111.243ZM52.4367 3.62854H58.1874V11.1931H52.4367V3.62854ZM11.3778 30.3198H0V7.38007H4.69952V25.8303H11.5633V30.3198H11.3778ZM15.0879 15.2522C16.7575 13.5916 19.1072 12.6076 21.7043 12.6076C24.2396 12.6076 26.5275 13.6531 28.1971 15.2522C29.8667 16.9127 30.9179 19.1882 30.9179 21.6482C30.9179 24.1082 29.8667 26.3838 28.1971 28.0443C26.5275 29.7048 24.2396 30.6888 21.7043 30.6888C19.1691 30.6888 16.8193 29.7048 15.1498 28.0443C13.4802 26.3838 12.429 24.1697 12.429 21.6482C12.3672 19.1882 13.3565 16.9127 15.0879 15.2522ZM24.858 18.2657C23.9923 17.4047 22.8174 16.8512 21.5188 16.8512C20.2821 16.8512 19.1691 17.4047 18.3034 18.2657C17.4995 19.1267 16.943 20.3567 16.943 21.6482C16.943 23.0012 17.4377 24.1697 18.3034 25.0308C19.1072 25.8918 20.2821 26.4453 21.5807 26.4453C22.8792 26.4453 23.9923 25.8918 24.858 25.0308C25.7237 24.1697 26.2184 22.9397 26.2184 21.6482C26.2184 20.3567 25.7237 19.1267 24.858 18.2657ZM45.8821 14.6371V12.9766H50.2725V26.8758C50.2725 28.5363 50.1488 29.9508 49.8396 31.1193C49.5304 32.2878 49.0357 33.2103 48.3556 34.0713C47.5517 35.0554 46.5005 35.7934 45.3256 36.3469C44.1507 36.8389 42.7903 37.0849 41.2444 37.0849C39.142 37.0849 37.2251 36.5929 35.7411 35.6704C34.1952 34.7479 33.0203 33.3333 32.3401 31.6113L32.2164 31.2423H37.3488L37.4106 31.3038C37.9671 31.9188 38.5237 32.3493 39.142 32.5953C39.7604 32.8413 40.5024 32.9643 41.43 32.9643C42.8522 32.9643 43.9034 32.5338 44.6454 31.7343C45.2638 30.9963 45.6348 30.0123 45.8203 28.6593C45.2019 29.3358 44.5217 29.8278 43.7797 30.1353C42.8522 30.5658 41.801 30.7503 40.5643 30.7503C38.0908 30.7503 35.9266 29.7663 34.3807 28.1673C32.8348 26.5068 31.9691 24.2312 31.9691 21.5867C31.9691 19.0037 32.8966 16.7897 34.4425 15.1907C35.9884 13.5916 38.1527 12.6076 40.5643 12.6076C41.801 12.6076 42.914 12.7921 43.8415 13.2841C44.6454 13.5916 45.3256 14.0221 45.8821 14.6371ZM44.3981 18.1427C43.5942 17.2817 42.4193 16.8512 40.9971 16.8512C39.6986 16.8512 38.5855 17.3432 37.8435 18.2042C37.1014 19.0652 36.6686 20.2952 36.6686 21.7712C36.6686 23.2472 37.1014 24.4157 37.9053 25.2768C38.7092 26.0763 39.8222 26.5683 41.1826 26.5683C42.543 26.5683 43.7179 26.0763 44.4599 25.2768C45.2638 24.4157 45.6966 23.2472 45.6966 21.7712C45.6966 20.2337 45.2019 19.0037 44.3981 18.1427ZM57.3217 30.3198H52.9932V12.9766H57.5691V30.3198H57.3217ZM64.6802 30.3198H60.3517V12.9766H64.6184V14.2066C65.2367 13.6531 65.7932 13.2841 66.4734 13.0381C67.2773 12.7306 68.143 12.5461 69.1324 12.5461C70.3691 12.5461 71.4821 12.7921 72.4097 13.2226C73.399 13.6531 74.1411 14.3296 74.7594 15.2522C75.1923 15.9287 75.5014 16.6667 75.6251 17.5277C75.8106 18.4502 75.8725 19.4957 75.8725 20.9717V30.2583H71.2966V21.7712C71.2966 20.6642 71.2348 19.7417 71.1111 19.0652C70.9874 18.4502 70.8019 17.9582 70.4928 17.6507C70.2454 17.3432 69.9362 17.0972 69.5652 16.9742C69.1942 16.8512 68.7614 16.7282 68.3285 16.7282C67.7101 16.7282 67.1536 16.8512 66.6589 17.0972C66.1643 17.3432 65.7932 17.7122 65.5459 18.2042C65.2986 18.5732 65.1749 19.0037 65.0512 19.5572C64.9275 20.1722 64.9275 20.9102 64.9275 22.0172V30.1968H64.6802V30.3198ZM80.5101 15.2522C78.8406 16.9127 77.7894 19.1882 77.7894 21.7097C77.7894 24.1697 78.8406 26.4453 80.5101 28.1058C82.1797 29.7663 84.5295 30.7503 87.0647 30.7503C89.6 30.7503 91.8879 29.7048 93.5575 28.1058C95.2271 26.4453 96.2783 24.2312 96.2783 21.7097C96.2783 19.1882 95.2271 16.9127 93.5575 15.3137C91.8879 13.6531 89.6 12.6691 87.0647 12.6691C84.5295 12.6076 82.1797 13.5916 80.5101 15.2522ZM90.342 18.2657C91.2077 19.1267 91.7024 20.3567 91.7024 21.7097C91.7024 23.0627 91.2077 24.2312 90.342 25.0923C89.4763 25.9533 88.3633 26.5068 87.0647 26.5068C85.828 26.5068 84.6531 25.9533 83.7874 25.0923C82.9217 24.2312 82.4271 23.0012 82.4271 21.7097C82.4271 20.4182 82.9217 19.1882 83.7874 18.3272C84.5913 17.4662 85.7662 16.9127 87.0029 16.9127C88.3014 16.8512 89.4763 17.4047 90.342 18.2657Z" fill="#00A8C0"/>
        <path fill-rule="evenodd" clip-rule="evenodd" d="M64.1854 34.8095H62.7014V36.716C61.5883 35.1785 60.2898 34.502 58.3729 34.502C55.0956 34.502 52.5603 36.962 52.5603 40.283C52.5603 43.5426 55.0956 46.0026 58.4347 46.0026C60.2898 46.0026 61.4647 45.3876 62.6395 43.85V45.7566H64.1236V34.8095H64.1854ZM58.311 35.9165C60.7845 35.9165 62.6395 37.7615 62.6395 40.2215C62.6395 42.6815 60.7845 44.5881 58.3729 44.5881C55.9613 44.5881 53.9825 42.62 53.9825 40.2215C54.1062 37.8845 55.9613 35.9165 58.311 35.9165ZM77.6656 34.8095H76.1816V36.716C75.0685 35.1785 73.7081 34.502 71.8531 34.502C68.6376 34.502 66.226 36.962 66.226 40.283C66.226 43.481 68.6994 45.9411 71.9767 45.9411C73.9555 45.9411 75.3159 45.1416 76.1816 43.481V44.2191C76.1816 45.3261 76.0579 46.0026 75.7487 46.6791C75.1922 47.9091 73.8318 48.6471 72.1622 48.6471C70.9874 48.6471 70.0598 48.2781 69.256 47.6016C68.8849 47.2326 68.6376 46.9251 68.1429 46.0641H66.7207C67.5246 48.6471 69.4415 50.0001 72.2241 50.0001C74.141 50.0001 75.7487 49.3236 76.6762 48.0321C77.4183 47.0481 77.7274 45.8796 77.7274 43.727V34.8095H77.6656ZM71.8531 35.9165C74.3265 35.9165 76.1816 37.7 76.1816 40.16C76.1816 42.6815 74.3883 44.6496 71.9767 44.6496C69.5651 44.6496 67.7719 42.743 67.7719 40.2215C67.7719 37.7615 69.5651 35.9165 71.8531 35.9165ZM91.3932 40.775C91.3932 39.299 91.2076 38.438 90.713 37.5155C89.7236 35.6705 87.8067 34.5635 85.6424 34.5635C82.4888 34.5635 79.9535 37.085 79.9535 40.2215C79.9535 43.481 82.4888 46.0026 85.7661 46.0026C88.1777 46.0026 90.2801 44.4651 91.084 42.128H89.5381C88.9197 43.6041 87.3738 44.6496 85.7043 44.6496C83.4163 44.6496 81.5613 42.9275 81.4376 40.775H91.3932ZM81.4994 39.422C81.8704 37.331 83.54 35.9165 85.6424 35.9165C87.7448 35.9165 89.4144 37.2695 89.9091 39.422H81.4994ZM93.4337 45.7566H94.9178V39.7295C94.9178 38.561 95.0415 37.8845 95.4125 37.331C95.969 36.47 97.0202 35.9165 98.2569 35.9165C99.3081 35.9165 100.236 36.2855 100.854 37.0235C101.411 37.7 101.658 38.4995 101.658 39.9755V45.6951H103.142V39.9755C103.142 38.1305 102.895 37.1465 102.153 36.224C101.287 35.117 99.9883 34.502 98.4424 34.502C97.0202 34.502 95.8453 35.0555 94.9178 36.1625V34.748H93.4337V45.7566ZM114.953 42.5585C113.778 44.0961 112.788 44.6496 111.181 44.6496C108.707 44.6496 106.79 42.743 106.79 40.283C106.79 37.823 108.707 35.9165 111.119 35.9165C112.726 35.9165 114.087 36.716 114.953 38.1305H116.622C115.756 35.9165 113.654 34.5635 111.181 34.5635C107.903 34.5635 105.306 37.085 105.306 40.283C105.306 43.5426 107.903 46.0641 111.304 46.0641C112.603 46.0641 113.901 45.6951 114.891 44.8956C115.633 44.3421 116.066 43.727 116.684 42.62H114.953V42.5585ZM120.023 49.5696H121.631L128 34.8095H126.392L122.682 43.5425L119.219 34.8095H117.612L121.878 45.3876L120.023 49.5696Z" fill="#2D3542"/>
    </symbol>
</svg>
