<svg width="0" height="0" class="hidden">
    <symbol viewBox="0 0 30 30" fill="none" xmlns="http://www.w3.org/2000/svg" >
        <path d="M8.22285 6.46973C7.73847 5.98535 6.95314 5.98535 6.46875 6.46973C5.98437 6.95411 5.98437 7.73945 6.46875 8.22383L13.2452 15.0003L6.46875 21.7767C5.98437 22.2611 5.98437 23.0464 6.46875 23.5308C6.95314 24.0152 7.73847 24.0152 8.22285 23.5308L14.9993 16.7544L21.7757 23.5308C22.2601 24.0152 23.0454 24.0152 23.5298 23.5308C24.0142 23.0464 24.0142 22.2611 23.5298 21.7767L16.7534 15.0003L23.5298 8.22383C24.0142 7.73945 24.0142 6.95411 23.5298 6.46973C23.0454 5.98535 22.2601 5.98535 21.7757 6.46973L14.9993 13.2462L8.22285 6.46973Z" fill="black"></path>
    </symbol>

    <symbol id="close" xmlns="http://www.w3.org/2000/svg"  viewBox="0 0 40 40" fill="none">
        <rect width="40" height="40" rx="5" fill="white"/>
        <path d="M28 12L12 28" stroke="white" stroke-width="2"/>
        <path d="M28 28L12 12" stroke="white" stroke-width="2"/>
    </symbol>

    <symbol id="logo" xmlns="http://www.w3.org/2000/svg" viewBox="0 0 128 50" fill="none">
        <path fill-rule="evenodd" clip-rule="evenodd" d="M105.986 30.3198H102.586L95.5362 12.9766H100.669L104.379 23.5547L112.974 0H118.168C114.149 10.0861 110.191 20.1722 106.172 30.3198H105.986ZM111.243 25.2153V30.0738H116.128V25.2153H111.243ZM52.4367 3.62854H58.1874V11.1931H52.4367V3.62854ZM11.3778 30.3198H0V7.38007H4.69952V25.8303H11.5633V30.3198H11.3778ZM15.0879 15.2522C16.7575 13.5916 19.1072 12.6076 21.7043 12.6076C24.2396 12.6076 26.5275 13.6531 28.1971 15.2522C29.8667 16.9127 30.9179 19.1882 30.9179 21.6482C30.9179 24.1082 29.8667 26.3838 28.1971 28.0443C26.5275 29.7048 24.2396 30.6888 21.7043 30.6888C19.1691 30.6888 16.8193 29.7048 15.1498 28.0443C13.4802 26.3838 12.429 24.1697 12.429 21.6482C12.3672 19.1882 13.3565 16.9127 15.0879 15.2522ZM24.858 18.2657C23.9923 17.4047 22.8174 16.8512 21.5188 16.8512C20.2821 16.8512 19.1691 17.4047 18.3034 18.2657C17.4995 19.1267 16.943 20.3567 16.943 21.6482C16.943 23.0012 17.4377 24.1697 18.3034 25.0308C19.1072 25.8918 20.2821 26.4453 21.5807 26.4453C22.8792 26.4453 23.9923 25.8918 24.858 25.0308C25.7237 24.1697 26.2184 22.9397 26.2184 21.6482C26.2184 20.3567 25.7237 19.1267 24.858 18.2657ZM45.8821 14.6371V12.9766H50.2725V26.8758C50.2725 28.5363 50.1488 29.9508 49.8396 31.1193C49.5304 32.2878 49.0357 33.2103 48.3556 34.0713C47.5517 35.0554 46.5005 35.7934 45.3256 36.3469C44.1507 36.8389 42.7903 37.0849 41.2444 37.0849C39.142 37.0849 37.2251 36.5929 35.7411 35.6704C34.1952 34.7479 33.0203 33.3333 32.3401 31.6113L32.2164 31.2423H37.3488L37.4106 31.3038C37.9671 31.9188 38.5237 32.3493 39.142 32.5953C39.7604 32.8413 40.5024 32.9643 41.43 32.9643C42.8522 32.9643 43.9034 32.5338 44.6454 31.7343C45.2638 30.9963 45.6348 30.0123 45.8203 28.6593C45.2019 29.3358 44.5217 29.8278 43.7797 30.1353C42.8522 30.5658 41.801 30.7503 40.5643 30.7503C38.0908 30.7503 35.9266 29.7663 34.3807 28.1673C32.8348 26.5068 31.9691 24.2312 31.9691 21.5867C31.9691 19.0037 32.8966 16.7897 34.4425 15.1907C35.9884 13.5916 38.1527 12.6076 40.5643 12.6076C41.801 12.6076 42.914 12.7921 43.8415 13.2841C44.6454 13.5916 45.3256 14.0221 45.8821 14.6371ZM44.3981 18.1427C43.5942 17.2817 42.4193 16.8512 40.9971 16.8512C39.6986 16.8512 38.5855 17.3432 37.8435 18.2042C37.1014 19.0652 36.6686 20.2952 36.6686 21.7712C36.6686 23.2472 37.1014 24.4157 37.9053 25.2768C38.7092 26.0763 39.8222 26.5683 41.1826 26.5683C42.543 26.5683 43.7179 26.0763 44.4599 25.2768C45.2638 24.4157 45.6966 23.2472 45.6966 21.7712C45.6966 20.2337 45.2019 19.0037 44.3981 18.1427ZM57.3217 30.3198H52.9932V12.9766H57.5691V30.3198H57.3217ZM64.6802 30.3198H60.3517V12.9766H64.6184V14.2066C65.2367 13.6531 65.7932 13.2841 66.4734 13.0381C67.2773 12.7306 68.143 12.5461 69.1324 12.5461C70.3691 12.5461 71.4821 12.7921 72.4097 13.2226C73.399 13.6531 74.1411 14.3296 74.7594 15.2522C75.1923 15.9287 75.5014 16.6667 75.6251 17.5277C75.8106 18.4502 75.8725 19.4957 75.8725 20.9717V30.2583H71.2966V21.7712C71.2966 20.6642 71.2348 19.7417 71.1111 19.0652C70.9874 18.4502 70.8019 17.9582 70.4928 17.6507C70.2454 17.3432 69.9362 17.0972 69.5652 16.9742C69.1942 16.8512 68.7614 16.7282 68.3285 16.7282C67.7101 16.7282 67.1536 16.8512 66.6589 17.0972C66.1643 17.3432 65.7932 17.7122 65.5459 18.2042C65.2986 18.5732 65.1749 19.0037 65.0512 19.5572C64.9275 20.1722 64.9275 20.9102 64.9275 22.0172V30.1968H64.6802V30.3198ZM80.5101 15.2522C78.8406 16.9127 77.7894 19.1882 77.7894 21.7097C77.7894 24.1697 78.8406 26.4453 80.5101 28.1058C82.1797 29.7663 84.5295 30.7503 87.0647 30.7503C89.6 30.7503 91.8879 29.7048 93.5575 28.1058C95.2271 26.4453 96.2783 24.2312 96.2783 21.7097C96.2783 19.1882 95.2271 16.9127 93.5575 15.3137C91.8879 13.6531 89.6 12.6691 87.0647 12.6691C84.5295 12.6076 82.1797 13.5916 80.5101 15.2522ZM90.342 18.2657C91.2077 19.1267 91.7024 20.3567 91.7024 21.7097C91.7024 23.0627 91.2077 24.2312 90.342 25.0923C89.4763 25.9533 88.3633 26.5068 87.0647 26.5068C85.828 26.5068 84.6531 25.9533 83.7874 25.0923C82.9217 24.2312 82.4271 23.0012 82.4271 21.7097C82.4271 20.4182 82.9217 19.1882 83.7874 18.3272C84.5913 17.4662 85.7662 16.9127 87.0029 16.9127C88.3014 16.8512 89.4763 17.4047 90.342 18.2657Z" fill="#00A8C0"/>
        <path fill-rule="evenodd" clip-rule="evenodd" d="M64.1854 34.8095H62.7014V36.716C61.5883 35.1785 60.2898 34.502 58.3729 34.502C55.0956 34.502 52.5603 36.962 52.5603 40.283C52.5603 43.5426 55.0956 46.0026 58.4347 46.0026C60.2898 46.0026 61.4647 45.3876 62.6395 43.85V45.7566H64.1236V34.8095H64.1854ZM58.311 35.9165C60.7845 35.9165 62.6395 37.7615 62.6395 40.2215C62.6395 42.6815 60.7845 44.5881 58.3729 44.5881C55.9613 44.5881 53.9825 42.62 53.9825 40.2215C54.1062 37.8845 55.9613 35.9165 58.311 35.9165ZM77.6656 34.8095H76.1816V36.716C75.0685 35.1785 73.7081 34.502 71.8531 34.502C68.6376 34.502 66.226 36.962 66.226 40.283C66.226 43.481 68.6994 45.9411 71.9767 45.9411C73.9555 45.9411 75.3159 45.1416 76.1816 43.481V44.2191C76.1816 45.3261 76.0579 46.0026 75.7487 46.6791C75.1922 47.9091 73.8318 48.6471 72.1622 48.6471C70.9874 48.6471 70.0598 48.2781 69.256 47.6016C68.8849 47.2326 68.6376 46.9251 68.1429 46.0641H66.7207C67.5246 48.6471 69.4415 50.0001 72.2241 50.0001C74.141 50.0001 75.7487 49.3236 76.6762 48.0321C77.4183 47.0481 77.7274 45.8796 77.7274 43.727V34.8095H77.6656ZM71.8531 35.9165C74.3265 35.9165 76.1816 37.7 76.1816 40.16C76.1816 42.6815 74.3883 44.6496 71.9767 44.6496C69.5651 44.6496 67.7719 42.743 67.7719 40.2215C67.7719 37.7615 69.5651 35.9165 71.8531 35.9165ZM91.3932 40.775C91.3932 39.299 91.2076 38.438 90.713 37.5155C89.7236 35.6705 87.8067 34.5635 85.6424 34.5635C82.4888 34.5635 79.9535 37.085 79.9535 40.2215C79.9535 43.481 82.4888 46.0026 85.7661 46.0026C88.1777 46.0026 90.2801 44.4651 91.084 42.128H89.5381C88.9197 43.6041 87.3738 44.6496 85.7043 44.6496C83.4163 44.6496 81.5613 42.9275 81.4376 40.775H91.3932ZM81.4994 39.422C81.8704 37.331 83.54 35.9165 85.6424 35.9165C87.7448 35.9165 89.4144 37.2695 89.9091 39.422H81.4994ZM93.4337 45.7566H94.9178V39.7295C94.9178 38.561 95.0415 37.8845 95.4125 37.331C95.969 36.47 97.0202 35.9165 98.2569 35.9165C99.3081 35.9165 100.236 36.2855 100.854 37.0235C101.411 37.7 101.658 38.4995 101.658 39.9755V45.6951H103.142V39.9755C103.142 38.1305 102.895 37.1465 102.153 36.224C101.287 35.117 99.9883 34.502 98.4424 34.502C97.0202 34.502 95.8453 35.0555 94.9178 36.1625V34.748H93.4337V45.7566ZM114.953 42.5585C113.778 44.0961 112.788 44.6496 111.181 44.6496C108.707 44.6496 106.79 42.743 106.79 40.283C106.79 37.823 108.707 35.9165 111.119 35.9165C112.726 35.9165 114.087 36.716 114.953 38.1305H116.622C115.756 35.9165 113.654 34.5635 111.181 34.5635C107.903 34.5635 105.306 37.085 105.306 40.283C105.306 43.5426 107.903 46.0641 111.304 46.0641C112.603 46.0641 113.901 45.6951 114.891 44.8956C115.633 44.3421 116.066 43.727 116.684 42.62H114.953V42.5585ZM120.023 49.5696H121.631L128 34.8095H126.392L122.682 43.5425L119.219 34.8095H117.612L121.878 45.3876L120.023 49.5696Z" fill="#2D3542"/>
    </symbol>

    <symbol id="logo-white" xmlns="http://www.w3.org/2000/svg" viewBox="0 0 205 80" fill="none">
        <path fill-rule="evenodd" clip-rule="evenodd" d="M169.744 48.5117H164.297L153.007 20.7626H161.227L167.169 37.6876L180.935 0H189.253C182.816 16.1378 176.478 32.2755 170.041 48.5117H169.744ZM178.162 40.3444V48.1181H185.985V40.3444H178.162ZM83.9806 5.80566H93.1907V17.909H83.9806V5.80566ZM18.2222 48.5117H0V11.8081H7.52656V41.3284H18.5193V48.5117H18.2222ZM24.1642 24.4034C26.8381 21.7466 30.6014 20.1722 34.7608 20.1722C38.8212 20.1722 42.4855 21.845 45.1594 24.4034C47.8333 27.0603 49.5168 30.7011 49.5168 34.6372C49.5168 38.5732 47.8333 42.214 45.1594 44.8709C42.4855 47.5277 38.8212 49.1021 34.7608 49.1021C30.7004 49.1021 26.9372 47.5277 24.2633 44.8709C21.5893 42.214 19.9058 38.6716 19.9058 34.6372C19.8067 30.7011 21.3913 27.0603 24.1642 24.4034ZM39.8115 29.2251C38.4251 27.8475 36.5434 26.9619 34.4637 26.9619C32.4831 26.9619 30.7004 27.8475 29.314 29.2251C28.0265 30.6027 27.1352 32.5707 27.1352 34.6372C27.1352 36.802 27.9275 38.6716 29.314 40.0492C30.6014 41.4268 32.483 42.3124 34.5628 42.3124C36.6425 42.3124 38.4251 41.4268 39.8115 40.0492C41.198 38.6716 41.9903 36.7036 41.9903 34.6372C41.9903 32.5707 41.198 30.6027 39.8115 29.2251ZM73.483 23.4194V20.7626H80.5144V43.0012C80.5144 45.6581 80.3163 47.9213 79.8212 49.7909C79.326 51.6605 78.5337 53.1365 77.4443 54.5142C76.1569 56.0886 74.4733 57.2694 72.5917 58.155C70.7101 58.9422 68.5313 59.3358 66.0555 59.3358C62.6883 59.3358 59.6183 58.5486 57.2415 57.0726C54.7656 55.5966 52.884 53.3333 51.7946 50.5781L51.5966 49.9877H59.8163L59.9154 50.0861C60.8067 51.0701 61.698 51.7589 62.6883 52.1525C63.6787 52.5461 64.8671 52.7429 66.3526 52.7429C68.6303 52.7429 70.3139 52.0541 71.5023 50.7749C72.4927 49.5941 73.0869 48.0197 73.384 45.8549C72.3936 46.9373 71.3043 47.7245 70.1159 48.2165C68.6303 48.9053 66.9468 49.2005 64.9661 49.2005C61.0048 49.2005 57.5386 47.6261 55.0627 45.0677C52.5869 42.4108 51.2004 38.77 51.2004 34.5387C51.2004 30.4059 52.6859 26.8635 55.1618 24.3051C57.6376 21.7466 61.1038 20.1722 64.9661 20.1722C66.9468 20.1722 68.7294 20.4674 70.2149 21.2546C71.5023 21.7466 72.5917 22.4354 73.483 23.4194ZM71.1062 29.0283C69.8188 27.6507 67.9371 26.9619 65.6593 26.9619C63.5796 26.9619 61.797 27.7491 60.6086 29.1267C59.4202 30.5043 58.727 32.4723 58.727 34.834C58.727 37.1956 59.4202 39.0652 60.7076 40.4428C61.9951 41.722 63.7777 42.5092 65.9564 42.5092C68.1352 42.5092 70.0168 41.722 71.2052 40.4428C72.4927 39.0652 73.1859 37.1956 73.1859 34.834C73.1859 32.3739 72.3936 30.4059 71.1062 29.0283ZM91.8042 48.5117H84.8719V20.7626H92.2004V48.5117H91.8042ZM103.589 48.5117H96.6569V20.7626H103.49V22.7306C104.481 21.845 105.372 21.2546 106.461 20.861C107.749 20.369 109.135 20.0738 110.72 20.0738C112.7 20.0738 114.483 20.4674 115.968 21.1562C117.553 21.845 118.741 22.9274 119.732 24.4034C120.425 25.4859 120.92 26.6667 121.118 28.0443C121.415 29.5203 121.514 31.1931 121.514 33.5547V48.4133H114.186V34.834C114.186 33.0627 114.087 31.5867 113.889 30.5043C113.691 29.5203 113.394 28.7331 112.898 28.2411C112.502 27.7491 112.007 27.3555 111.413 27.1587C110.819 26.9619 110.125 26.7651 109.432 26.7651C108.442 26.7651 107.551 26.9619 106.758 27.3555C105.966 27.7491 105.372 28.3395 104.976 29.1267C104.58 29.7171 104.382 30.4059 104.183 31.2915C103.985 32.2755 103.985 33.4563 103.985 35.2276V48.3149H103.589V48.5117ZM128.942 24.4034C126.268 27.0603 124.584 30.7011 124.584 34.7355C124.584 38.6716 126.268 42.3124 128.942 44.9693C131.616 47.6261 135.379 49.2005 139.439 49.2005C143.5 49.2005 147.164 47.5277 149.838 44.9693C152.512 42.3124 154.195 38.77 154.195 34.7355C154.195 30.7011 152.512 27.0603 149.838 24.5019C147.164 21.845 143.5 20.2706 139.439 20.2706C135.379 20.1722 131.616 21.7466 128.942 24.4034ZM144.688 29.2251C146.075 30.6027 146.867 32.5707 146.867 34.7355C146.867 36.9004 146.075 38.77 144.688 40.1476C143.302 41.5252 141.519 42.4108 139.439 42.4108C137.459 42.4108 135.577 41.5252 134.191 40.1476C132.804 38.77 132.012 36.802 132.012 34.7355C132.012 32.6691 132.804 30.7011 134.191 29.3235C135.478 27.9459 137.36 27.0603 139.34 27.0603C141.42 26.9619 143.302 27.8475 144.688 29.2251Z" fill="#00A8C0"/>
        <path fill-rule="evenodd" clip-rule="evenodd" d="M102.796 55.6951H100.419V58.7456C98.6367 56.2855 96.557 55.2031 93.4869 55.2031C88.2381 55.2031 84.1777 59.1392 84.1777 64.4528C84.1777 69.6681 88.2381 73.6041 93.5859 73.6041C96.5569 73.6041 98.4386 72.6201 100.32 70.1601V73.2105H102.697V55.6951H102.796ZM93.3879 57.4664C97.3492 57.4664 100.32 60.4184 100.32 64.3544C100.32 68.2905 97.3492 71.3409 93.4869 71.3409C89.6246 71.3409 86.4555 68.1921 86.4555 64.3544C86.6536 60.6152 89.6246 57.4664 93.3879 57.4664ZM124.385 55.6951H122.009V58.7456C120.226 56.2855 118.047 55.2031 115.076 55.2031C109.926 55.2031 106.064 59.1392 106.064 64.4528C106.064 69.5697 110.026 73.5057 115.274 73.5057C118.443 73.5057 120.622 72.2265 122.009 69.5697V70.7505C122.009 72.5217 121.811 73.6041 121.315 74.6865C120.424 76.6545 118.245 77.8354 115.571 77.8354C113.69 77.8354 112.204 77.2449 110.917 76.1625C110.323 75.5721 109.926 75.0801 109.134 73.7025H106.856C108.144 77.8354 111.214 80.0002 115.67 80.0002C118.74 80.0002 121.315 78.9178 122.801 76.8513C123.989 75.2769 124.484 73.4073 124.484 69.9633V55.6951H124.385ZM115.076 57.4664C119.038 57.4664 122.009 60.32 122.009 64.256C122.009 68.2905 119.137 71.4393 115.274 71.4393C111.412 71.4393 108.54 68.3889 108.54 64.3544C108.54 60.4184 111.412 57.4664 115.076 57.4664ZM146.371 65.24C146.371 62.8784 146.074 61.5008 145.282 60.0248C143.697 57.0728 140.627 55.3015 137.161 55.3015C132.11 55.3015 128.05 59.336 128.05 64.3544C128.05 69.5697 132.11 73.6041 137.359 73.6041C141.221 73.6041 144.588 71.1441 145.876 67.4049H143.4C142.41 69.7665 139.934 71.4393 137.26 71.4393C133.596 71.4393 130.625 68.6841 130.426 65.24H146.371ZM130.526 63.0752C131.12 59.7296 133.794 57.4664 137.161 57.4664C140.528 57.4664 143.202 59.6312 143.994 63.0752H130.526ZM149.639 73.2105H152.016V63.5672C152.016 61.6976 152.214 60.6152 152.808 59.7296C153.699 58.352 155.383 57.4664 157.364 57.4664C159.047 57.4664 160.533 58.0568 161.523 59.2376C162.414 60.32 162.81 61.5992 162.81 63.9608V73.1121H165.187V63.9608C165.187 61.0088 164.791 59.4344 163.603 57.9584C162.216 56.1871 160.137 55.2031 157.661 55.2031C155.383 55.2031 153.501 56.0887 152.016 57.8599V55.5967H149.639V73.2105ZM184.103 68.0937C182.221 70.5537 180.637 71.4393 178.062 71.4393C174.1 71.4393 171.03 68.3889 171.03 64.4528C171.03 60.5168 174.1 57.4664 177.963 57.4664C180.538 57.4664 182.716 58.7456 184.103 61.0088H186.777C185.39 57.4664 182.023 55.3015 178.062 55.3015C172.813 55.3015 168.653 59.336 168.653 64.4528C168.653 69.6681 172.813 73.7025 178.26 73.7025C180.339 73.7025 182.419 73.1121 184.004 71.8329C185.192 70.9473 185.885 69.9633 186.876 68.1921H184.103V68.0937ZM192.223 79.3114H194.798L204.999 55.6951H202.424L196.482 69.6681L190.936 55.6951H188.361L195.195 72.6201L192.223 79.3114Z" fill="white"/>
    </symbol>

    <symbol id="whatsapp" xmlns="http://www.w3.org/2000/svg" viewBox="0 0 24 24">
        <path d="M12.001 2C17.524 2 22.001 6.477 22.001 12C22.001 17.523 17.524 22 12.001 22C10.2338 22.0029 8.49765 21.5352 6.97099 20.645L2.00499 22L3.35699 17.032C2.46608 15.5049 1.99804 13.768 2.00099 12C2.00099 6.477 6.47799 2 12.001 2ZM8.59299 7.3L8.39299 7.308C8.26351 7.31589 8.13697 7.3499 8.02099 7.408C7.91251 7.46943 7.81349 7.54622 7.72699 7.636C7.60699 7.749 7.53899 7.847 7.46599 7.942C7.09611 8.4229 6.89696 9.01331 6.89999 9.62C6.90199 10.11 7.02999 10.587 7.22999 11.033C7.63899 11.935 8.31199 12.89 9.19999 13.775C9.41399 13.988 9.62399 14.202 9.84999 14.401C10.9534 15.3725 12.2682 16.073 13.69 16.447L14.258 16.534C14.443 16.544 14.628 16.53 14.814 16.521C15.1052 16.506 15.3896 16.4271 15.647 16.29C15.7779 16.2225 15.9057 16.1491 16.03 16.07C16.03 16.07 16.073 16.042 16.155 15.98C16.29 15.88 16.373 15.809 16.485 15.692C16.568 15.606 16.64 15.505 16.695 15.39C16.773 15.227 16.851 14.916 16.883 14.657C16.907 14.459 16.9 14.351 16.897 14.284C16.893 14.177 16.804 14.066 16.707 14.019L16.125 13.758C16.125 13.758 15.255 13.379 14.723 13.137C14.6673 13.1127 14.6077 13.0988 14.547 13.096C14.4786 13.089 14.4094 13.0967 14.3442 13.1186C14.279 13.1405 14.2193 13.1761 14.169 13.223C14.164 13.221 14.097 13.278 13.374 14.154C13.3325 14.2098 13.2753 14.2519 13.2098 14.2751C13.1443 14.2982 13.0733 14.3013 13.006 14.284C12.9408 14.2665 12.877 14.2445 12.815 14.218C12.691 14.166 12.648 14.146 12.563 14.11C11.9891 13.8595 11.4577 13.5211 10.988 13.107C10.862 12.997 10.745 12.877 10.625 12.761C10.2316 12.3842 9.88871 11.958 9.60499 11.493L9.54599 11.398C9.50361 11.3342 9.46935 11.2653 9.44399 11.193C9.40599 11.046 9.50499 10.928 9.50499 10.928C9.50499 10.928 9.74799 10.662 9.86099 10.518C9.97099 10.378 10.064 10.242 10.124 10.145C10.242 9.955 10.279 9.76 10.217 9.609C9.93699 8.925 9.64699 8.244 9.34899 7.568C9.28999 7.434 9.11499 7.338 8.95599 7.319C8.90199 7.313 8.84799 7.307 8.79399 7.303C8.6597 7.29633 8.52513 7.29766 8.39099 7.307L8.59299 7.3Z" />
    </symbol>

    <symbol id="tg" xmlns="http://www.w3.org/2000/svg" viewBox="0 0 24 24" >
        <path fill-rule="evenodd" clip-rule="evenodd" d="M19.7767 4.42997C20.0238 4.32596 20.2943 4.29008 20.5599 4.32608C20.8256 4.36208 21.0768 4.46863 21.2873 4.63465C21.4979 4.80067 21.6601 5.02008 21.757 5.27005C21.854 5.52002 21.8822 5.79141 21.8387 6.05597L19.5707 19.813C19.3507 21.14 17.8947 21.901 16.6777 21.24C15.6597 20.687 14.1477 19.835 12.7877 18.946C12.1077 18.501 10.0247 17.076 10.2807 16.062C10.5007 15.195 14.0007 11.937 16.0007 9.99997C16.7857 9.23897 16.4277 8.79997 15.5007 9.49997C13.1987 11.238 9.50265 13.881 8.28065 14.625C7.20265 15.281 6.64065 15.393 5.96865 15.281C4.74265 15.077 3.60565 14.761 2.67765 14.376C1.42365 13.856 1.48465 12.132 2.67665 11.63L19.7767 4.42997Z" />
    </symbol>

    <symbol id="dev" xmlns="http://www.w3.org/2000/svg" viewBox="0 0 109 30" fill="none">
        <path d="M31.7579 23.6702L31.7344 23.6937V26.9397L31.7579 26.9631H32.756C33.7682 26.9631 34.4979 26.234 34.4979 25.3167C34.4979 24.3994 33.7682 23.6702 32.756 23.6702H31.7579ZM32.0969 24.0325H32.756C33.5234 24.0325 34.079 24.5969 34.079 25.3167C34.079 26.0364 33.5234 26.6009 32.756 26.6009H32.0969V24.0325ZM35.6447 23.6702L35.6212 23.6937V26.9397L35.6447 26.9631H35.9602L35.9837 26.9397V23.6937L35.9602 23.6702H35.6447ZM40.0892 24.3194V23.9054C39.7831 23.6749 39.3595 23.5996 38.9122 23.5996C37.9 23.5996 37.1232 24.3758 37.1232 25.3167C37.1232 26.281 37.9236 27.0337 38.9357 27.0337C39.3595 27.0337 39.7831 26.9161 40.1363 26.6574V25.1803L40.1128 25.1567H39.0299L39.0064 25.1803V25.5001L39.0299 25.5237H39.7737V26.441C39.5242 26.5868 39.2088 26.6527 38.9357 26.6527C38.1448 26.6527 37.5375 26.074 37.5375 25.3167C37.5375 24.5734 38.1213 23.9807 38.9122 23.9807C39.3124 23.9807 39.7502 24.0653 40.0656 24.3429L40.0892 24.3194ZM41.3909 23.6702L41.3673 23.6937V26.9397L41.3909 26.9631H41.7063L41.7298 26.9397V23.6937L41.7063 23.6702H41.3909ZM42.7704 23.6702L42.7469 23.6937V24.0089L42.7704 24.0325H43.8815V26.9397L43.905 26.9631H44.2252L44.2487 26.9397V24.0325H45.3598L45.3833 24.0089V23.6937L45.3598 23.6702H42.7704ZM46.8381 23.6702L46.8146 23.6937L45.5057 26.9397L45.5293 26.9631H45.8777L45.9012 26.9397L46.2496 26.0788H47.7561L48.1092 26.9397L48.1328 26.9631H48.4811L48.5047 26.9397L47.1912 23.6937L47.1677 23.6702H46.8381ZM47.0029 24.1688L47.6149 25.7166H46.3955L47.0029 24.1688ZM49.4743 23.6702L49.4554 23.689V26.9443L49.4743 26.9631H51.3527L51.3716 26.9443V26.6245L51.3527 26.6009H49.818V23.689L49.7991 23.6702H49.4743ZM52.2251 25.6742L52.2016 25.6977V26.0176L52.2251 26.0412H53.6846L53.7081 26.0176V25.6977L53.6846 25.6742H52.2251ZM55.7768 23.6702L55.7532 23.6937L54.4444 26.9397L54.468 26.9631H54.8163L54.8399 26.9397L55.1883 26.0788H56.6949L57.0479 26.9397L57.0715 26.9631H57.4199L57.4434 26.9397L56.1299 23.6937L56.1063 23.6702H55.7768ZM55.9416 24.1688L56.5536 25.7166H55.3342L55.9416 24.1688ZM58.4177 23.6702L58.3941 23.6937V26.9397L58.4177 26.9631H58.7331L58.7566 26.9397V24.0325H60.2868L60.3103 24.0089V23.6937L60.2868 23.6702H58.4177ZM61.3528 23.6702L61.3292 23.6937V26.9397L61.3528 26.9631H63.3631L63.3867 26.9397V26.6245L63.3631 26.6009H61.6918V25.3355H62.8453L62.8688 25.312V24.9921L62.8453 24.9686H61.6918V24.0325H63.2219L63.2454 24.0089V23.6937L63.2219 23.6702H61.3528ZM64.4764 23.6702L64.4529 23.6937V26.9397L64.4764 26.9631H64.7919L64.8154 26.9397V25.3355H66.7127V26.9397L66.7362 26.9631H67.0515L67.075 26.9397V23.6937L67.0515 23.6702H66.7362L66.7127 23.6937V24.9686H64.8154V23.6937L64.7919 23.6702H64.4764ZM68.1134 23.6702L68.0899 23.6937V24.0089L68.1134 24.0325H69.2243V26.9397L69.2478 26.9631H69.5683L69.5918 26.9397V24.0325H70.7027L70.7262 24.0089V23.6937L70.7027 23.6702H68.1134ZM74.0699 24.3664V23.9524C73.7638 23.7313 73.3872 23.5996 72.9401 23.5996C71.9748 23.5996 71.1981 24.3758 71.1981 25.3167C71.1981 26.2575 71.9748 27.0337 72.9401 27.0337C73.3872 27.0337 73.7638 26.902 74.0699 26.6809V26.2669L74.0464 26.2434C73.7312 26.5021 73.3402 26.6527 72.9401 26.6527C72.2104 26.6527 71.6125 26.0599 71.6125 25.3167C71.6125 24.5734 72.2104 23.9807 72.9401 23.9807C73.3402 23.9807 73.7312 24.1312 74.0464 24.39L74.0699 24.3664ZM75.0137 23.6702L74.9902 23.6937V24.0089L75.0137 24.0325H76.1246V26.9397L76.1481 26.9631H76.4686L76.4921 26.9397V24.0325H77.6029L77.6264 24.0089V23.6937L77.6029 23.6702H75.0137ZM78.6675 23.6702L78.644 23.6937V26.9397L78.6675 26.9631H79.7412C80.3762 26.9631 80.8475 26.535 80.8475 25.9706C80.8475 25.5566 80.6119 25.2179 80.0989 25.0768C80.3058 24.9591 80.4467 24.7757 80.4467 24.4982C80.4467 23.9995 80.0754 23.6702 79.4161 23.6702H78.6675ZM79.0062 24.0325H79.4161C79.8443 24.0325 80.0329 24.2112 80.0329 24.4982C80.0329 24.8228 79.8019 24.9921 79.4161 24.9921H79.0062V24.0325ZM79.0062 25.359H79.7412C80.1648 25.359 80.433 25.6131 80.433 25.9706C80.433 26.3469 80.1648 26.6009 79.7412 26.6009H79.0062V25.359ZM83.5248 23.5996C82.5641 23.5996 81.7828 24.3711 81.7828 25.3167C81.7828 26.2622 82.5641 27.0337 83.5248 27.0337C84.485 27.0337 85.2662 26.2622 85.2662 25.3167C85.2662 24.3711 84.485 23.5996 83.5248 23.5996ZM83.5248 23.9807C84.2546 23.9807 84.8472 24.5781 84.8472 25.3167C84.8472 26.0552 84.2546 26.6527 83.5248 26.6527C82.7951 26.6527 82.1966 26.0552 82.1966 25.3167C82.1966 24.5781 82.7951 23.9807 83.5248 23.9807Z" fill="white" />
        <path fill-rule="evenodd" clip-rule="evenodd" d="M12.0749 2.60938C13.3808 2.60938 14.6382 2.81651 15.8162 3.1997L13.5299 7.25174H16.2319L17.9317 4.1212C21.6402 6.18045 24.1497 10.1347 24.1497 14.6746C24.1497 21.338 18.7436 26.7398 12.0749 26.7398C5.40609 26.7398 0 21.338 0 14.6746C0 8.01114 5.40609 2.60938 12.0749 2.60938ZM10.9476 9.47892L11.0172 9.40953H12.9626L13.032 9.47892L16.7145 19.0595L16.645 19.1289H14.4911L14.4216 19.0595L13.7268 17.1156H10.2529L9.55806 19.0595L9.48855 19.1289H7.33472L7.26521 19.0595L10.9476 9.47892ZM13.1015 15.1717L11.9899 11.9088L10.8782 15.1717H13.1015Z" fill="white" />
        <path d="M34.8317 2.60938C35.9699 2.60938 36.8404 2.87548 37.4434 3.40741C38.0462 3.93935 38.3479 4.7422 38.3479 5.81544V10.2362H36.6403V9.31816C36.4184 9.6477 36.1025 9.89951 35.6926 10.0737C35.2826 10.248 34.7882 10.3351 34.2094 10.3351C33.6306 10.3351 33.1243 10.2386 32.6902 10.0456C32.2561 9.85248 31.921 9.58411 31.6845 9.24048C31.4482 8.89672 31.3301 8.50848 31.3301 8.07518C31.3301 7.39731 31.588 6.85359 32.1041 6.44391C32.6203 6.0344 33.4331 5.82963 34.5422 5.82963H36.5391V5.7166C36.5391 5.18935 36.3775 4.78452 36.0542 4.50195C35.7311 4.21951 35.2512 4.07822 34.6146 4.07822C34.1805 4.07822 33.7537 4.14424 33.334 4.27602C32.9144 4.4078 32.56 4.5914 32.2706 4.82684L31.5615 3.5416C31.9667 3.24028 32.4539 3.00953 33.023 2.84962C33.5922 2.68946 34.1949 2.60938 34.8317 2.60938ZM34.5857 9.04972C35.039 9.04972 35.4418 8.94851 35.7939 8.74614C36.1461 8.5437 36.3943 8.25414 36.5391 7.87757V7.00183H34.6725C33.6306 7.00183 33.1098 7.3362 33.1098 8.00468C33.1098 8.3247 33.24 8.57905 33.5004 8.76733C33.7608 8.95561 34.1228 9.04972 34.5857 9.04972ZM43.8027 7.21372H42.3991V10.2362H40.5906V2.69429H42.3991V5.74486H43.846L46.1323 2.69429H48.0712L45.2641 6.32394L48.2593 10.2362H46.1323L43.8027 7.21372ZM57.7459 8.73903L58.2793 10.2262L56.3189 10.2362H49.5325V2.69429H51.3412V8.73903H55.0309V2.69429H56.8395V8.73903H57.7459ZM66.8523 6.50752C66.8523 6.62996 66.8432 6.80422 66.8236 7.03014H60.7609C60.8669 7.58579 61.1445 8.02581 61.5929 8.35072C62.0414 8.67557 62.5987 8.83803 63.2641 8.83803C64.1128 8.83803 64.8121 8.56483 65.3622 8.01883L66.3315 9.10627C65.9842 9.51127 65.5456 9.81714 65.0147 10.0244C64.4841 10.2315 63.8863 10.3351 63.2208 10.3351C62.3716 10.3351 61.624 10.1702 60.9779 9.84068C60.3313 9.51127 59.8323 9.0522 59.4804 8.46368C59.128 7.87529 58.9521 7.20903 58.9521 6.46509C58.9521 5.73067 59.1235 5.06923 59.466 4.48079C59.8079 3.89234 60.283 3.43325 60.8908 3.10368C61.4985 2.77423 62.1835 2.60938 62.9455 2.60938C63.6982 2.60938 64.3709 2.77182 64.9642 3.09658C65.5574 3.42161 66.0202 3.87814 66.3537 4.46672C66.6859 5.05517 66.8523 5.73549 66.8523 6.50752ZM62.9455 4.02184C62.3666 4.02184 61.8771 4.18897 61.4769 4.52311C61.0767 4.8575 60.8331 5.30239 60.7464 5.85789H65.1307C65.053 5.31176 64.8171 4.86916 64.4214 4.5302C64.0262 4.19125 63.5338 4.02184 62.9455 4.02184ZM68.8346 2.69429H70.6432V5.75906H74.5352V2.69429H76.3445V10.2362H74.5352V7.25611H70.6432V10.2362H68.8346V2.69429ZM84.9013 4.19125H82.19V10.2362H80.3807V4.19125H77.661V2.69429H84.8902L84.9013 4.19125Z" fill="white" />
        <path d="M106.72 19.8199H104.236L106.52 13.8652H109.004L106.72 19.8199Z" fill="white" />
        <path d="M31.8867 13.7494H33.4903V15.9125H35.911V13.7494H37.5249V19.2914H35.911V17.2208H33.4903V19.2914H31.8867V13.7494ZM41.2285 13.667C42.0907 13.667 42.7528 13.8713 43.215 14.2799C43.6771 14.6885 43.9081 15.3048 43.9081 16.1289V19.2914H42.3977V18.6012C42.0941 19.1162 41.5286 19.3737 40.701 19.3737C40.2735 19.3737 39.9028 19.3016 39.5889 19.1574C39.2751 19.0132 39.0354 18.8141 38.8698 18.5599C38.7044 18.3059 38.6216 18.0175 38.6216 17.6947C38.6216 17.1796 38.8164 16.7744 39.2062 16.4791C39.5959 16.1838 40.1976 16.0362 41.0114 16.0362H42.2942C42.2942 15.6861 42.1874 15.4164 41.9735 15.2277C41.7596 15.0387 41.4389 14.9443 41.0114 14.9443C40.7148 14.9443 40.4234 14.9907 40.1372 15.0834C39.8509 15.176 39.608 15.3014 39.4079 15.4593L38.8285 14.3366C39.132 14.1236 39.4958 13.9588 39.9199 13.8421C40.3441 13.7254 40.7804 13.667 41.2285 13.667ZM41.1043 18.2922C41.3805 18.2922 41.6251 18.2286 41.8391 18.1016C42.0528 17.9746 42.2045 17.7873 42.2942 17.5402V16.9736H41.1872C40.5251 16.9736 40.1942 17.1899 40.1942 17.6227C40.1942 17.8287 40.2752 17.9916 40.4372 18.112C40.5993 18.2321 40.8217 18.2922 41.1043 18.2922ZM51.5223 13.667C52.0395 13.667 52.5102 13.7855 52.9344 14.0224C53.3585 14.2593 53.6913 14.5923 53.9327 15.0215C54.1742 15.4507 54.2948 15.9505 54.2948 16.5204C54.2948 17.0903 54.1742 17.5899 53.9327 18.0191C53.6913 18.4483 53.3585 18.7814 52.9344 19.0183C52.5102 19.2552 52.0395 19.3737 51.5223 19.3737C50.8119 19.3737 50.2533 19.1505 49.8463 18.7042V21.2898H48.2325V13.7494H49.7739V14.388C50.1739 13.9074 50.7566 13.667 51.5223 13.667ZM51.2429 18.0552C51.6568 18.0552 51.9964 17.9162 52.262 17.6381C52.5275 17.3599 52.6603 16.9874 52.6603 16.5204C52.6603 16.0534 52.5275 15.6809 52.262 15.4027C51.9964 15.1246 51.6568 14.9855 51.2429 14.9855C50.8291 14.9855 50.4895 15.1246 50.224 15.4027C49.9585 15.6809 49.8256 16.0534 49.8256 16.5204C49.8256 16.9874 49.9585 17.3599 50.224 17.6381C50.4895 17.9162 50.8291 18.0552 51.2429 18.0552ZM60.8333 16.541C60.8333 16.5616 60.8228 16.7058 60.8023 16.9736H56.5916C56.6674 17.317 56.8469 17.5883 57.1295 17.7873C57.412 17.9866 57.7638 18.0862 58.1848 18.0862C58.4746 18.0862 58.7316 18.0432 58.9554 17.9574C59.1797 17.8715 59.388 17.7359 59.5813 17.5505L60.44 18.4775C59.916 19.075 59.1504 19.3737 58.1433 19.3737C57.5156 19.3737 56.9605 19.2519 56.4778 19.0081C55.9948 18.7643 55.6225 18.426 55.3604 17.9934C55.0984 17.5607 54.9673 17.0697 54.9673 16.5204C54.9673 15.9778 55.0967 15.4886 55.3552 15.0525C55.6139 14.6165 55.9691 14.2765 56.4209 14.0328C56.8725 13.7888 57.3776 13.667 57.9366 13.667C58.4812 13.667 58.9742 13.7838 59.4157 14.0172C59.8572 14.2507 60.204 14.5855 60.4556 15.0215C60.707 15.4577 60.8333 15.9641 60.8333 16.541ZM57.9466 14.8826C57.581 14.8826 57.2746 14.9855 57.0259 15.1916C56.7777 15.3976 56.6259 15.6791 56.5705 16.0362H59.3122C59.2573 15.6861 59.1055 15.4062 58.8573 15.1967C58.6091 14.9873 58.3056 14.8826 57.9466 14.8826ZM65.6133 16.4071C65.9435 16.5101 66.2007 16.6681 66.3835 16.8809C66.5662 17.0937 66.6576 17.3479 66.6576 17.6432C66.6576 17.9934 66.5368 18.3007 66.2953 18.5651C66.0538 18.8296 65.7229 19.0338 65.3019 19.1781C64.8818 19.3222 64.4059 19.3944 63.8746 19.3944C63.4403 19.3944 63.0127 19.3497 62.5922 19.2605C62.1712 19.1712 61.7812 19.0372 61.4228 18.8588L61.8571 17.7359C62.4437 18.0175 63.0919 18.1582 63.8021 18.1582C64.1815 18.1582 64.4801 18.1016 64.6973 17.9883C64.9144 17.875 65.023 17.7152 65.023 17.5092C65.023 17.3307 64.9471 17.1952 64.7953 17.1024C64.6436 17.0096 64.4231 16.9634 64.1334 16.9634H62.9955V15.9641H63.9888C64.2713 15.9641 64.4884 15.9195 64.6402 15.8302C64.7921 15.741 64.8679 15.6104 64.8679 15.4388C64.8679 15.2601 64.7732 15.1228 64.5832 15.0267C64.3937 14.9306 64.1229 14.8826 63.771 14.8826C63.2332 14.8826 62.647 15.0095 62.0122 15.2637L61.6194 14.1511C62.3916 13.8147 63.1434 13.6465 63.8746 13.6465C64.3782 13.6465 64.828 13.7082 65.2247 13.8318C65.6211 13.9554 65.9331 14.1357 66.1609 14.3726C66.3887 14.6095 66.5029 14.8858 66.5029 15.2019C66.5029 15.4629 66.4226 15.6981 66.2647 15.9075C66.1061 16.117 65.8881 16.2834 65.6133 16.4071ZM73.4032 13.7494L70.8884 19.6313C70.6338 20.27 70.3179 20.7198 69.9426 20.9808C69.566 21.2418 69.113 21.3722 68.5817 21.3722C68.2919 21.3722 68.0054 21.3275 67.7228 21.2382C67.4408 21.149 67.2091 21.0254 67.0303 20.8674L67.6197 19.724C67.7443 19.834 67.8873 19.9197 68.0491 19.9816C68.211 20.0433 68.3709 20.0742 68.5302 20.0742C68.7508 20.0742 68.9303 20.021 69.068 19.9147C69.2064 19.808 69.3304 19.6313 69.4407 19.3841L69.4609 19.3326L67.0505 13.7494H68.7162L70.2787 17.5092L71.8504 13.7494H73.4032ZM79.1241 13.7494V19.2914H77.5093V15.0679H75.7509L75.6994 16.0466C75.6713 16.7744 75.6028 17.3789 75.4925 17.8595C75.3822 18.3402 75.2027 18.7179 74.9546 18.9927C74.7066 19.2672 74.3613 19.4047 73.9201 19.4047C73.6858 19.4047 73.4065 19.3634 73.0821 19.281L73.165 17.9626C73.2753 17.9762 73.3542 17.9831 73.4032 17.9831C73.644 17.9831 73.8248 17.8955 73.9456 17.7204C74.0663 17.5453 74.1473 17.3223 74.189 17.0508C74.2308 16.7796 74.2608 16.4209 74.2824 15.9745L74.3646 13.7494H79.1241ZM83.6857 15.5211C84.4096 15.5281 84.9657 15.6911 85.3514 16.0104C85.7378 16.3298 85.931 16.7814 85.931 17.3651C85.931 17.9762 85.7156 18.4518 85.2848 18.7918C84.8528 19.1316 84.2484 19.3016 83.4684 19.3016L80.6755 19.2914V13.7494H82.2785V15.5211H83.6857ZM83.3241 18.1582C83.6342 18.1651 83.8718 18.0999 84.0375 17.9626C84.2033 17.8251 84.2862 17.6191 84.2862 17.3445C84.2862 17.0766 84.2046 16.8809 84.0434 16.7572C83.8809 16.6337 83.6407 16.5684 83.3241 16.5616L82.2785 16.5512V18.1582H83.3241ZM91.1036 15.0679H89.2206V19.2914H87.6176V15.0679H85.7346V13.7494H91.1036V15.0679ZM94.1243 13.667C94.9865 13.667 95.6483 13.8713 96.1111 14.2799C96.5725 14.6885 96.8036 15.3048 96.8036 16.1289V19.2914H95.2933V18.6012C94.9904 19.1162 94.4245 19.3737 93.5969 19.3737C93.1694 19.3737 92.7987 19.3016 92.4847 19.1574C92.1708 19.0132 91.9312 18.8141 91.7655 18.5599C91.6003 18.3059 91.5174 18.0175 91.5174 17.6947C91.5174 17.1796 91.7126 16.7744 92.1016 16.4791C92.4919 16.1838 93.093 16.0362 93.9069 16.0362H95.1901C95.1901 15.6861 95.0831 15.4164 94.8697 15.2277C94.6556 15.0387 94.3351 14.9443 93.9069 14.9443C93.6106 14.9443 93.3195 14.9907 93.033 15.0834C92.7465 15.176 92.5036 15.3014 92.3033 15.4593L91.7243 14.3366C92.0272 14.1236 92.3914 13.9588 92.8156 13.8421C93.2399 13.7254 93.6759 13.667 94.1243 13.667ZM94.0003 18.2922C94.2764 18.2922 94.5211 18.2286 94.7346 18.1016C94.9486 17.9746 95.1001 17.7873 95.1901 17.5402V16.9736H94.0832C93.4207 16.9736 93.0898 17.1899 93.0898 17.6227C93.0898 17.8287 93.1707 17.9916 93.3326 18.112C93.4951 18.2321 93.7177 18.2922 94.0003 18.2922ZM102.643 15.0679H101.004V19.2914H99.4V15.0679H97.5176V13.7494H103.131L102.643 15.0679Z" fill="white" />
    </symbol>

    <symbol id="drop" xmlns="http://www.w3.org/2000/svg" viewBox="0 0 12 8" fill="none">
        <path d="M1 1L6 6L11 1" stroke="#00A9C1" stroke-width="1.5"/>
    </symbol>

    <symbol id="drop-w" xmlns="http://www.w3.org/2000/svg" viewBox="0 0 12 8" fill="none">
        <path d="M1 1L6 6L11 1" stroke-width="1.5"/>
    </symbol>

    <symbol id="arrow-back" xmlns="http://www.w3.org/2000/svg" viewBox="0 0 8 12" fill="none">
        <path d="M7 11L2 6L7 1" stroke="#00A9C1" stroke-width="1.5"/>
    </symbol>

    <symbol id="arrow-forward" xmlns="http://www.w3.org/2000/svg" viewBox="0 0 6 10" fill="none">
        <path d="M1 1L5 5L1 9" stroke="#00A9C1"/>
    </symbol>

    <symbol id="tick-stat" xmlns="http://www.w3.org/2000/svg" viewBox="0 0 100 100" fill="none">
        <rect width="100" height="100" rx="15" fill="#F3F4F8"/>
        <path fill-rule="evenodd" clip-rule="evenodd" d="M48.47 70H42.459L30 47.1197H39.071L45.6284 61.0751L60.8197 30H70C62.8962 43.3063 55.9016 56.6126 48.7978 70H48.47ZM57.7596 63.2657V69.6755H66.3934V63.2657H57.7596Z" fill="#00A9C1"/>
    </symbol>

    <symbol id="arrow-left" xmlns="http://www.w3.org/2000/svg" viewBox="0 0 60 60" >
        <path d="M37.5 29.5L22.5 29.5M22.5 29.5L30 37M22.5 29.5L30 22" stroke-width="2"/>
    </symbol>

    <symbol id="ac-1" xmlns="http://www.w3.org/2000/svg" viewBox="0 0 30 30" fill="none">
        <path fill-rule="evenodd" clip-rule="evenodd" d="M14.9459 2C18.3288 2 21.0351 4.70632 21.0351 8.18587C21.0351 11.5688 18.3288 14.2751 14.9459 14.2751C11.563 14.2751 8.76001 11.5688 8.76001 8.18587C8.76001 4.70632 11.563 2 14.9459 2Z" fill="#00A9C1"/>
        <path fill-rule="evenodd" clip-rule="evenodd" d="M10.8851 15.7246H19.0041C22.387 15.7246 25.1899 18.5276 25.1899 21.9105V27.9997H4.69922V21.9105C4.69922 18.5276 7.50219 15.7246 10.8851 15.7246Z" fill="#00A9C1"/>
    </symbol>

    <symbol id="ac-2" xmlns="http://www.w3.org/2000/svg" viewBox="0 0 30 30" fill="none">
        <path fill-rule="evenodd" clip-rule="evenodd" d="M9.91143 4.70032C8.6442 4.70376 7.59051 4.72375 6.73001 4.83943C5.64988 4.98466 4.74044 5.29533 4.01813 6.01763C3.29584 6.73993 2.98516 7.64938 2.83995 8.72951C2.78232 9.15811 2.74844 9.63466 2.72852 10.1616C2.74817 10.1694 2.7677 10.1778 2.78705 10.187C8.63973 12.9741 11.3464 14.2454 14.2076 14.3998C14.7356 14.4284 15.2646 14.4284 15.7926 14.3998C18.6193 14.2472 21.5576 12.877 27.2715 10.1566C27.2516 9.6316 27.2177 9.15673 27.1603 8.72951C27.0151 7.64938 26.7044 6.73993 25.9821 6.01763C25.2597 5.29534 24.3504 4.98466 23.2703 4.83943C22.4097 4.72375 21.356 4.70376 20.0888 4.70032C19.936 2.68625 18.2533 1.09961 16.2001 1.09961H13.8001C11.7469 1.09961 10.0643 2.68625 9.91143 4.70032ZM11.7214 4.69961H18.2789C18.1333 3.68193 17.258 2.89961 16.2001 2.89961H13.8001C12.7422 2.89961 11.8669 3.68193 11.7214 4.69961Z" fill="#00A9C1"/>
        <path d="M19.2651 25.6999H10.7334C9.09227 25.6999 7.76948 25.6999 6.72912 25.5601C5.64899 25.4149 4.73954 25.1042 4.01724 24.3819C3.29495 23.6595 2.98427 22.7502 2.83906 21.67C2.69918 20.6296 2.6992 19.3069 2.69922 17.6658V12.7226C2.69922 12.5236 2.69922 12.3294 2.69947 12.1396C7.98256 14.6546 10.9445 16.0266 14.1098 16.1974C14.7023 16.2295 15.2961 16.2295 15.8887 16.1974C19.054 16.0266 22.0159 14.6545 27.299 12.1396C27.2992 12.3297 27.2992 12.5244 27.2992 12.7237V17.6658C27.2992 19.3069 27.2992 20.6296 27.1594 21.67C27.0142 22.7502 26.7035 23.6595 25.9813 24.3819C25.2589 25.1042 24.3495 25.4149 23.2694 25.5601C22.229 25.6999 20.9062 25.6999 19.2651 25.6999Z" fill="#00A9C1"/>
    </symbol>

    <symbol id="ac-3" xmlns="http://www.w3.org/2000/svg" viewBox="0 0 30 30" fill="none">
        <path d="M5.4 3C4.07448 3 3 4.07448 3 5.4V6.6V7.80002V21.6375V24.6C3 25.926 4.07448 27 5.4 27H10.2H19.8L27 19.8V7.80002V5.4C27 4.07448 25.926 3 24.6 3H19.8H10.2H5.4ZM6.6 7.80002H23.4V10.2H6.6V7.80002ZM6.6 12.6H23.4V15H6.6V12.6ZM6.6 17.4H17.4V19.8H6.6V17.4Z" fill="#00A9C1"/>
    </symbol>

    <symbol id="quote" xmlns="http://www.w3.org/2000/svg" viewBox="0 0 30 25" fill="none">
        <path d="M12.4332 0L7.78075 17.9032L6.49733 11.8548C8.36898 11.8548 9.91979 12.4462 11.1497 13.629C12.3797 14.8118 12.9947 16.3979 12.9947 18.3871C12.9947 20.3763 12.3797 21.9892 11.1497 23.2258C9.91979 24.4086 8.39572 25 6.57754 25C4.65241 25 3.07487 24.3817 1.84492 23.1452C0.614973 21.9086 0 20.3226 0 18.3871C0 17.7419 0.0267379 17.1505 0.0802138 16.6129C0.187166 16.0215 0.374331 15.3226 0.641711 14.5161C0.909091 13.7097 1.28342 12.6882 1.76471 11.4516L6.01604 0H12.4332ZM29.4385 0L24.7861 17.9032L23.5027 11.8548C25.3743 11.8548 26.9251 12.4462 28.1551 13.629C29.385 14.8118 30 16.3979 30 18.3871C30 20.3763 29.385 21.9892 28.1551 23.2258C26.9251 24.4086 25.4011 25 23.5829 25C21.6578 25 20.0802 24.3817 18.8503 23.1452C17.6203 21.9086 17.0053 20.3226 17.0053 18.3871C17.0053 17.7419 17.0321 17.1505 17.0856 16.6129C17.1925 16.0215 17.3797 15.3226 17.6471 14.5161C17.9144 13.7097 18.2888 12.6882 18.7701 11.4516L23.0214 0H29.4385Z" fill="#00A9C1"/>
    </symbol>

    <symbol id="pin" xmlns="http://www.w3.org/2000/svg" viewBox="0 0 25 25" >
        <path d="M12.5004 2.08301C7.90562 2.08301 4.16708 5.82155 4.16708 10.4111C4.13687 17.1247 12.1837 22.6913 12.5004 22.9163C12.5004 22.9163 20.864 17.1247 20.8337 10.4163C20.8337 5.82155 17.0952 2.08301 12.5004 2.08301ZM12.5004 14.583C10.1983 14.583 8.33374 12.7184 8.33374 10.4163C8.33374 8.11426 10.1983 6.24967 12.5004 6.24967C14.8025 6.24967 16.6671 8.11426 16.6671 10.4163C16.6671 12.7184 14.8025 14.583 12.5004 14.583Z" />
    </symbol>

    <symbol viewBox="0 0 1920 990" fill="none" xmlns="http://www.w3.org/2000/svg">
        <path fill-rule="evenodd" clip-rule="evenodd" d="M1552.2 378.9L1360 -98H1542.6L1613.1 104.1L1767.9 -321H1948.1L1930 -275C1861.6 -101.2 1771.6 127.9 1681 357.7L1672.6 379H1552.2V378.9Z" stroke="white" stroke-opacity="0.15" stroke-width="2" stroke-miterlimit="10"/>
        <path fill-rule="evenodd" clip-rule="evenodd" d="M205.273 1920.82L-132 1084.21H188.427L312.141 1438.75L583.785 693H900L868.238 773.697C748.209 1078.59 590.277 1480.5 431.292 1883.63L416.552 1921H205.273V1920.82Z" stroke="white" stroke-opacity="0.15" stroke-width="2" stroke-miterlimit="10"/>
        <path fill-rule="evenodd" clip-rule="evenodd" d="M-288.38 799.886L-508 254.857H-299.35L-218.792 485.829L-41.9077 0H164L143.318 52.5714C65.1596 251.2 -37.6801 513.029 -141.205 775.657L-150.804 800H-288.38V799.886Z" stroke="white" stroke-opacity="0.15" stroke-width="2" stroke-miterlimit="10"/>
        <path fill-rule="evenodd" clip-rule="evenodd" d="M1814.62 1477.89L1595 932.857H1803.65L1884.21 1163.83L2061.09 678H2267L2246.32 730.571C2168.16 929.2 2065.32 1191.03 1961.79 1453.66L1952.2 1478H1814.62V1477.89Z" stroke="white" stroke-opacity="0.15" stroke-width="2" stroke-miterlimit="10"/>
    </symbol>

    <symbol id="quat-1" xmlns="http://www.w3.org/2000/svg" viewBox="0 0 50 50" fill="none">
        <path d="M20.7143 37.3689C20.8771 37.9261 21.34 38.269 21.8629 38.269H28.1371C28.8842 38.2723 29.2653 37.6699 29.3885 37.0004C29.3886 37.0004 29.8857 35.2861 29.8857 35.2861H19.9857C20.0797 35.5663 20.6345 37.131 20.7143 37.3689Z" fill="#00A9C1"/>
        <path d="M48.1429 35.2862H31.6686L31.1715 37.0004L30.9143 37.8919C30.5779 39.1098 29.401 39.9901 28.1371 39.9833H21.8629C20.5991 39.9901 19.422 39.1098 19.0857 37.8919C18.8798 37.3269 18.3852 35.8652 18.1686 35.2861C18.1686 35.2861 1.85714 35.2861 1.85714 35.2861C1.38572 35.2861 1 35.6632 1 36.1433V37.5832C1 40.729 3.55427 43.2918 6.70002 43.2918H43.3C46.4457 43.2918 49 40.729 49 37.5832V36.1433C49 35.6632 48.6143 35.2862 48.1429 35.2862Z" fill="#00A9C1"/>
        <path d="M45.5973 33.5719L45.5972 12.1176C45.5972 9.13477 43.1715 6.70898 40.1886 6.70898H9.81149C6.82859 6.70898 4.40286 9.13477 4.40286 12.1176V33.5719C4.95486 33.5855 43.8589 33.571 45.5973 33.5719ZM9.44287 11.0977C9.44287 10.6176 9.82002 10.2405 10.3 10.2405H39.7001C40.1801 10.2405 40.5572 10.6176 40.5572 11.0977V29.1834C40.5572 29.6633 40.1801 30.0405 39.7001 30.0405H10.3C9.82002 30.0405 9.44287 29.6633 9.44287 29.1834V11.0977Z" fill="#00A9C1"/>
        <path d="M38.8429 11.9551H11.1572V28.3265H38.8429V11.9551Z" fill="#FFFF20"/>
    </symbol>

    <symbol id="quat-2" xmlns="http://www.w3.org/2000/svg" viewBox="0 0 50 50" fill="none">
        <path fill-rule="evenodd" clip-rule="evenodd" d="M42.2125 20.412C42.0921 20.4062 41.9715 20.4041 41.8509 20.4058H36.8189C32.7023 20.4058 29.1768 23.673 29.1768 27.9342C29.1768 32.1954 32.7023 35.4626 36.8209 35.4626H41.8488C41.9749 35.4626 42.0968 35.4626 42.2105 35.4544C43.0602 35.4001 43.8612 35.0388 44.4642 34.4377C45.0672 33.8366 45.4311 33.0367 45.488 32.1872C45.4963 32.0652 45.4963 31.9351 45.4963 31.8152V24.0533C45.4963 23.9334 45.4963 23.8032 45.488 23.6813C45.4311 22.8321 45.0675 22.0325 44.465 21.4314C43.8624 20.8304 43.0619 20.4688 42.2125 20.4141V20.412ZM36.3787 29.9408C37.4388 29.9408 38.3006 29.044 38.3006 27.9342C38.3006 26.8245 37.4388 25.9276 36.3787 25.9276C35.3185 25.9276 34.4589 26.8245 34.4589 27.9342C34.4589 29.044 35.3165 29.9408 36.3787 29.9408Z" fill="#FFFF20"/>
        <path fill-rule="evenodd" clip-rule="evenodd" d="M41.8493 38.4741C41.9185 38.4717 41.9874 38.4856 42.0503 38.5146C42.1132 38.5437 42.1684 38.5871 42.2114 38.6414C42.2544 38.6957 42.2841 38.7593 42.298 38.8272C42.312 38.895 42.3097 38.9652 42.2915 39.0321C41.8906 40.4621 41.2562 41.6814 40.2374 42.7064C38.7475 44.2088 36.8565 44.8763 34.5213 45.1924C32.2523 45.5004 29.355 45.5004 25.6931 45.5004H21.4835C17.8237 45.5004 14.9243 45.5004 12.6552 45.1924C10.32 44.8763 8.4292 44.2088 6.9392 42.7064C5.44925 41.2061 4.78793 39.3007 4.47381 36.9469C4.16797 34.6593 4.16797 31.7372 4.16797 28.0484V27.8211C4.16797 24.1323 4.16797 21.2081 4.47381 18.9225C4.78793 16.5687 5.44925 14.6675 6.93715 13.161C8.4271 11.6607 10.318 10.9911 12.6532 10.677C14.9243 10.3691 17.8237 10.3691 21.4835 10.3691H25.6931C29.3529 10.3691 32.2523 10.3691 34.5213 10.677C36.8565 10.9932 38.7475 11.6607 40.2374 13.161C41.2562 14.1881 41.8906 15.4073 42.2915 16.8395C42.3093 16.9062 42.3112 16.9761 42.2971 17.0437C42.2831 17.1113 42.2533 17.1747 42.2104 17.2287C42.1674 17.2827 42.1123 17.326 42.0496 17.3549C41.9869 17.3838 41.9184 17.3977 41.8493 17.3954H36.8214C31.1715 17.3954 26.1932 21.8942 26.1932 27.9347C26.1932 33.9752 31.1736 38.4741 36.8235 38.4741H41.8493ZM11.6364 18.3997C11.4397 18.4005 11.245 18.4401 11.0635 18.5161C10.8821 18.5922 10.7174 18.7032 10.5788 18.8429C10.4403 18.9826 10.3306 19.1482 10.2561 19.3303C10.1815 19.5124 10.1436 19.7074 10.1444 19.9041C10.1444 20.737 10.8119 21.4107 11.6364 21.4107H19.605C20.4316 21.4107 21.0991 20.737 21.0991 19.9041C21.1002 19.5066 20.9435 19.1249 20.6634 18.8428C20.3832 18.5607 20.0026 18.4013 19.605 18.3997H11.6364Z" fill="#00A9C1"/>
        <path d="M16.1064 8.35185L20.1527 5.36985C21.2086 4.58924 22.4871 4.16797 23.8002 4.16797C25.1133 4.16797 26.3917 4.58924 27.4476 5.36985L31.5166 8.3684C29.8138 8.30225 27.9126 8.30225 25.8316 8.30225H21.3472C19.4418 8.30225 17.6915 8.30225 16.1064 8.35185Z" fill="#00A9C1"/>
    </symbol>

    <symbol id="quat-3" xmlns="http://www.w3.org/2000/svg" viewBox="0 0 50 50" fill="none">
        <path d="M16.7952 5.14286C15.2863 5.54464 14.1078 6.74998 13.7059 8.27674C13.5988 8.66959 13.5721 9.34816 13.5721 11.1785V13.5713H13.956C15.2417 13.5713 17.1971 14.0803 18.6167 14.7766C25.0362 17.9373 26.9559 26.1337 22.6256 31.9282L22.1523 32.5622L22.1255 38.5354C22.1077 43.0085 22.072 44.571 21.9916 44.7584L21.8755 44.9995H31.5451C42.1789 44.9995 41.7056 45.0263 42.7771 44.4549C43.402 44.1156 44.1788 43.3299 44.5002 42.696C45.027 41.6603 45.0003 42.3121 45.0003 28.8212V16.4284H41.1789C37.045 16.4284 36.8217 16.4106 35.8754 15.9284C35.2415 15.607 34.4557 14.8303 34.1165 14.2052C33.5897 13.2142 33.5718 13.0178 33.5718 8.82138V5L25.4291 5.00892C18.6078 5.00892 17.1971 5.03571 16.7952 5.14286ZM30.054 13.8035C30.5272 14.1517 30.6701 14.4374 30.6701 14.9999C30.6701 15.5624 30.5272 15.8481 30.054 16.1963C29.8219 16.3749 29.6701 16.3838 27.3397 16.4106C25.7505 16.4284 24.7505 16.4016 24.5362 16.3481C23.6344 16.0802 23.2862 14.8392 23.9023 14.0981C24.3398 13.5892 24.438 13.5713 27.2505 13.5981C29.679 13.6159 29.8219 13.6249 30.054 13.8035ZM38.6254 20.9462C39.0985 21.2944 39.2414 21.5801 39.2414 22.1426C39.2414 22.7051 39.0985 22.9908 38.6254 23.339C38.3843 23.5176 38.2682 23.5266 33.7683 23.5533C30.6879 23.5712 29.0451 23.5533 28.8218 23.4819C27.9201 23.223 27.5719 21.982 28.1879 21.2409C28.6433 20.7052 28.5361 20.7141 33.6789 20.7409C38.2682 20.7587 38.3843 20.7587 38.6254 20.9462ZM38.6254 28.089C39.0985 28.4372 39.2414 28.7229 39.2414 29.2854C39.2414 29.8479 39.0985 30.1336 38.6254 30.4818C38.3843 30.6604 38.2682 30.6693 33.7683 30.6961C30.6879 30.714 29.0451 30.6961 28.8218 30.6247C27.9201 30.3658 27.5719 29.1248 28.1879 28.3836C28.6433 27.8479 28.5361 27.8569 33.6789 27.8836C38.2682 27.9015 38.3843 27.9015 38.6254 28.089ZM38.6254 35.2318C39.0985 35.58 39.2414 35.8657 39.2414 36.4282C39.2414 36.9907 39.0985 37.2764 38.6254 37.6246C38.3843 37.8121 38.2771 37.8121 32.3397 37.8389C28.2593 37.8567 26.188 37.8389 25.9647 37.7675C25.063 37.5085 24.7148 36.2675 25.3308 35.5264C25.7862 34.9818 25.5541 34.9996 32.2504 35.0264C38.2861 35.0443 38.3843 35.0442 38.6254 35.2318Z" fill="#00A9C1"/>
        <path d="M36.4289 9.13333C36.4289 11.7047 36.4557 12.4815 36.5539 12.7047C36.7057 13.0797 37.1611 13.4636 37.5272 13.5261C37.6878 13.553 39.2325 13.5619 40.9646 13.553L44.1074 13.5261L40.2681 9.6869L36.4289 5.84766V9.13333Z" fill="#00A9C1"/>
        <path d="M12.0817 16.5638C10.2871 16.8853 8.66214 17.7602 7.40323 19.0906C4.19791 22.4388 4.21576 27.6262 7.44788 30.9655C8.95678 32.5369 10.9568 33.4297 13.171 33.5459C17.2335 33.7511 20.787 31.1083 21.8941 27.0638C22.1709 26.0817 22.1709 23.9209 21.8941 22.9388C20.9745 19.5728 18.3496 17.1442 15.0281 16.5638C14.1175 16.4032 12.9567 16.4032 12.0817 16.5638Z" fill="#FFFF20"/>
        <path d="M7.85786 39.3752C7.85786 44.3395 7.84892 44.2412 8.4382 44.6876C8.77749 44.9555 9.17034 45.0448 9.61676 44.9555C9.90247 44.902 10.2239 44.6341 11.7685 43.0983L13.5721 41.3037L15.3845 43.0983C16.9203 44.6341 17.2417 44.902 17.5274 44.9555C17.9738 45.0448 18.3667 44.9555 18.7059 44.6876C19.2952 44.2412 19.2863 44.3305 19.2863 39.393V34.9199L18.4381 35.3217C16.7952 36.0895 15.4739 36.3753 13.5721 36.3753C11.4471 36.3842 10.0543 36.018 7.92928 34.9288C7.88464 34.911 7.85786 36.911 7.85786 39.3752Z" fill="#FFFF20"/>
    </symbol>

    <symbol id="quat-4" xmlns="http://www.w3.org/2000/svg" viewBox="0 0 50 50" fill="none">
        <path d="M43.4 6.75H15.7C13.5 6.75 11.75 8.55 11.75 10.7V12.7V26.8C11.75 27.05 11.8 27.35 11.85 27.6C11.9 27.85 12 28.1 12.1 28.35C12.15 28.45 12.2 28.6 12.25 28.7C12.45 29.05 12.65 29.35 12.95 29.6C13.15 29.8 13.35 29.95 13.55 30.1C14.2 30.55 14.95 30.8 15.75 30.8H30.8414C31.1033 30.8 31.3547 30.9027 31.5417 31.0861L37.3997 36.8322C38.0324 37.4528 39.1 37.0046 39.1 36.1183V31.8C39.1 31.2477 39.5477 30.8 40.1 30.8H43.45C45.65 30.8 47.4 29 47.4 26.85V10.7C47.4 8.55 45.6 6.75 43.4 6.75Z" fill="#00A9C1"/>
        <path d="M14.7004 33.3C11.7004 33.3 9.25039 30.85 9.25039 27.85V13.75H5.60039C3.40039 13.75 1.65039 15.55 1.65039 17.7V33.8C1.65039 36 3.45039 37.75 5.60039 37.75H9.95039V45.45L17.8504 37.75H33.3504C33.6004 37.75 33.9004 37.7 34.1504 37.65L29.6004 33.25H14.7004V33.3Z" fill="#FFFF20"/>
    </symbol>

    <symbol id="tick" xmlns="http://www.w3.org/2000/svg" viewBox="0 0 100 100" fill="none">
        <path fill-rule="evenodd" clip-rule="evenodd" d="M48.47 70H42.459L30 47.1197H39.071L45.6284 61.0751L60.8197 30H70C62.8962 43.3063 55.9016 56.6126 48.7978 70H48.47ZM57.7596 63.2657V69.6755H66.3934V63.2657H57.7596Z" fill="white"/>
    </symbol>

    <symbol id="rl-arrow" xmlns="http://www.w3.org/2000/svg" viewBox="0 0 60 60" fill="none">
        <rect width="60" height="60" rx="10" fill="white"/>
        <path d="M25 35L35 25M35 25H25M35 25V35" stroke="white" stroke-width="2"/>
    </symbol>

    <symbol id="stage" viewBox="0 0 60 60" fill="none" xmlns="http://www.w3.org/2000/svg">
        <path d="M37.5 29.5L22.5 29.5M22.5 29.5L30 37M22.5 29.5L30 22" stroke-width="2"/>
    </symbol>

    <symbol id="plus" xmlns="http://www.w3.org/2000/svg" viewBox="0 0 10 10" fill="none">
        <path d="M5 0L5 10" stroke="#7E8397"/>
        <path d="M10 5L2.38419e-07 5" stroke="#7E8397"/>
    </symbol>

    <symbol id="text" viewBox="0 0 1779 144" fill="none" xmlns="http://www.w3.org/2000/svg">
        <path d="M0.774351 142V2.191H26.7389V120.03H99.839V142H0.774351ZM177.321 143.997C166.402 143.997 156.349 142.2 147.162 138.605C137.974 135.01 129.985 130.016 123.195 123.625C116.404 117.101 111.144 109.511 107.416 100.856C103.688 92.0682 101.824 82.4813 101.824 72.0955C101.824 61.7097 103.688 52.1894 107.416 43.5345C111.144 34.7465 116.404 27.1569 123.195 20.7656C129.985 14.2412 137.974 9.18146 147.162 5.58637C156.349 1.99128 166.336 0.193732 177.121 0.193732C188.039 0.193732 198.026 1.99128 207.08 5.58637C216.267 9.18146 224.257 14.2412 231.047 20.7656C237.838 27.1569 243.097 34.7465 246.826 43.5345C250.554 52.1894 252.418 61.7097 252.418 72.0955C252.418 82.4813 250.554 92.0682 246.826 100.856C243.097 109.644 237.838 117.234 231.047 123.625C224.257 130.016 216.267 135.01 207.08 138.605C198.026 142.2 188.106 143.997 177.321 143.997ZM177.121 121.228C184.178 121.228 190.702 120.03 196.694 117.633C202.686 115.237 207.879 111.841 212.273 107.447C216.667 102.92 220.062 97.7272 222.459 91.8685C224.989 85.8767 226.254 79.2857 226.254 72.0955C226.254 64.9053 224.989 58.3809 222.459 52.5222C220.062 46.5304 216.667 41.3375 212.273 36.9435C207.879 32.4164 202.686 28.9544 196.694 26.5577C190.702 24.161 184.178 22.9626 177.121 22.9626C170.064 22.9626 163.539 24.161 157.548 26.5577C151.689 28.9544 146.496 32.4164 141.969 36.9435C137.575 41.3375 134.113 46.5304 131.583 52.5222C129.186 58.3809 127.988 64.9053 127.988 72.0955C127.988 79.1525 129.186 85.6769 131.583 91.6688C134.113 97.6606 137.575 102.92 141.969 107.447C146.363 111.841 151.556 115.237 157.548 117.633C163.539 120.03 170.064 121.228 177.121 121.228ZM339.259 143.997C328.34 143.997 318.287 142.266 309.1 138.804C300.046 135.209 292.123 130.216 285.332 123.825C278.542 117.3 273.282 109.644 269.554 100.856C265.826 92.0682 263.962 82.4813 263.962 72.0955C263.962 61.7097 265.826 52.1228 269.554 43.3348C273.282 34.5468 278.542 26.9572 285.332 20.5659C292.256 14.0415 300.312 9.04831 309.499 5.58637C318.687 1.99128 328.74 0.193732 339.658 0.193732C351.509 0.193732 362.161 2.12443 371.615 5.98582C381.201 9.84721 389.257 15.5062 395.782 22.9626L379.404 38.9408C373.945 33.4816 368.019 29.487 361.628 26.9572C355.37 24.2941 348.446 22.9626 340.857 22.9626C333.533 22.9626 326.743 24.161 320.484 26.5577C314.226 28.9544 308.834 32.3498 304.307 36.7438C299.779 41.1378 296.251 46.3307 293.721 52.3225C291.324 58.3143 290.126 64.9053 290.126 72.0955C290.126 79.1525 291.324 85.6769 293.721 91.6688C296.251 97.6606 299.779 102.92 304.307 107.447C308.834 111.841 314.16 115.237 320.285 117.633C326.41 120.03 333.2 121.228 340.657 121.228C347.581 121.228 354.238 120.163 360.63 118.033C367.154 115.769 373.346 112.041 379.204 106.848L393.984 126.222C386.661 132.08 378.139 136.541 368.419 139.603C358.832 142.533 349.112 143.997 339.259 143.997ZM369.418 122.826V70.4977H393.984V126.222L369.418 122.826ZM422.238 142V2.191H448.202V142H422.238ZM480.026 142V2.191H501.397L589.077 109.844H578.491V2.191H604.256V142H582.885L495.205 34.3471H505.791V142H480.026ZM701.238 143.997C690.319 143.997 680.266 142.2 671.079 138.605C661.891 135.01 653.902 130.016 647.112 123.625C640.321 117.101 635.061 109.511 631.333 100.856C627.605 92.0682 625.741 82.4813 625.741 72.0955C625.741 61.7097 627.605 52.1894 631.333 43.5345C635.061 34.7465 640.321 27.1569 647.112 20.7656C653.902 14.2412 661.891 9.18146 671.079 5.58637C680.266 1.99128 690.253 0.193732 701.038 0.193732C711.956 0.193732 721.943 1.99128 730.997 5.58637C740.184 9.18146 748.174 14.2412 754.964 20.7656C761.755 27.1569 767.014 34.7465 770.743 43.5345C774.471 52.1894 776.335 61.7097 776.335 72.0955C776.335 82.4813 774.471 92.0682 770.743 100.856C767.014 109.644 761.755 117.234 754.964 123.625C748.174 130.016 740.184 135.01 730.997 138.605C721.943 142.2 712.023 143.997 701.238 143.997ZM701.038 121.228C708.095 121.228 714.619 120.03 720.611 117.633C726.603 115.237 731.796 111.841 736.19 107.447C740.584 102.92 743.979 97.7272 746.376 91.8685C748.906 85.8767 750.171 79.2857 750.171 72.0955C750.171 64.9053 748.906 58.3809 746.376 52.5222C743.979 46.5304 740.584 41.3375 736.19 36.9435C731.796 32.4164 726.603 28.9544 720.611 26.5577C714.619 24.161 708.095 22.9626 701.038 22.9626C693.981 22.9626 687.457 24.161 681.465 26.5577C675.606 28.9544 670.413 32.4164 665.886 36.9435C661.492 41.3375 658.03 46.5304 655.5 52.5222C653.103 58.3809 651.905 64.9053 651.905 72.0955C651.905 79.1525 653.103 85.6769 655.5 91.6688C658.03 97.6606 661.492 102.92 665.886 107.447C670.28 111.841 675.473 115.237 681.465 117.633C687.457 120.03 693.981 121.228 701.038 121.228ZM834.917 142L773.801 2.191H801.963L856.488 128.618H840.31L895.435 2.191H921.399L860.483 142H834.917ZM909.297 143.398C904.77 143.398 900.909 141.867 897.713 138.804C894.517 135.609 892.92 131.614 892.92 126.821C892.92 121.761 894.517 117.766 897.713 114.837C900.909 111.775 904.77 110.243 909.297 110.243C913.824 110.243 917.686 111.775 920.881 114.837C924.077 117.766 925.675 121.761 925.675 126.821C925.675 131.614 924.077 135.609 920.881 138.804C917.686 141.867 913.824 143.398 909.297 143.398ZM933.333 142L996.247 2.191H1021.81L1084.93 142H1057.76L1003.64 15.9722H1014.02L960.097 142H933.333ZM962.294 109.644L969.284 89.272H1044.78L1051.77 109.644H962.294ZM1160.07 143.997C1149.16 143.997 1139.1 142.266 1129.92 138.804C1120.86 135.209 1112.94 130.216 1106.15 123.825C1099.36 117.3 1094.1 109.644 1090.37 100.856C1086.64 92.0682 1084.78 82.4813 1084.78 72.0955C1084.78 61.7097 1086.64 52.1228 1090.37 43.3348C1094.1 34.5468 1099.36 26.9572 1106.15 20.5659C1113.07 14.0415 1121.13 9.04831 1130.32 5.58637C1139.5 1.99128 1149.56 0.193732 1160.47 0.193732C1172.32 0.193732 1182.98 2.12443 1192.43 5.98582C1202.02 9.84721 1210.07 15.5062 1216.6 22.9626L1200.22 38.9408C1194.76 33.4816 1188.84 29.487 1182.44 26.9572C1176.19 24.2941 1169.26 22.9626 1161.67 22.9626C1154.35 22.9626 1147.56 24.161 1141.3 26.5577C1135.04 28.9544 1129.65 32.3498 1125.12 36.7438C1120.6 41.1378 1117.07 46.3307 1114.54 52.3225C1112.14 58.3143 1110.94 64.9053 1110.94 72.0955C1110.94 79.1525 1112.14 85.6769 1114.54 91.6688C1117.07 97.6606 1120.6 102.92 1125.12 107.447C1129.65 111.841 1134.98 115.237 1141.1 117.633C1147.23 120.03 1154.02 121.228 1161.47 121.228C1168.4 121.228 1175.05 120.163 1181.45 118.033C1187.97 115.769 1194.16 112.041 1200.02 106.848L1214.8 126.222C1207.48 132.08 1198.96 136.541 1189.24 139.603C1179.65 142.533 1169.93 143.997 1160.07 143.997ZM1190.23 122.826V70.4977H1214.8V126.222L1190.23 122.826ZM1267.02 60.3116H1336.53V81.6824H1267.02V60.3116ZM1269.02 120.23H1347.91V142H1243.05V2.191H1345.11V23.9613H1269.02V120.23ZM1370.86 142V2.191H1392.23L1479.91 109.844H1469.33V2.191H1495.09V142H1473.72L1386.04 34.3471H1396.63V142H1370.86ZM1591.28 143.997C1580.62 143.997 1570.7 142.266 1561.52 138.804C1552.46 135.209 1544.54 130.216 1537.75 123.825C1531.09 117.3 1525.9 109.644 1522.17 100.856C1518.44 92.0682 1516.58 82.4813 1516.58 72.0955C1516.58 61.7097 1518.44 52.1228 1522.17 43.3348C1525.9 34.5468 1531.16 26.9572 1537.95 20.5659C1544.74 14.0415 1552.66 9.04831 1561.72 5.58637C1570.77 1.99128 1580.69 0.193732 1591.48 0.193732C1602.93 0.193732 1613.38 2.19101 1622.83 6.18555C1632.29 10.0469 1640.28 15.839 1646.8 23.5618L1630.02 39.3403C1624.96 33.881 1619.3 29.8199 1613.05 27.1569C1606.79 24.3607 1600 22.9626 1592.67 22.9626C1585.35 22.9626 1578.63 24.161 1572.5 26.5577C1566.51 28.9544 1561.25 32.3498 1556.72 36.7438C1552.33 41.1378 1548.87 46.3307 1546.34 52.3225C1543.94 58.3143 1542.74 64.9053 1542.74 72.0955C1542.74 79.2857 1543.94 85.8767 1546.34 91.8685C1548.87 97.8603 1552.33 103.053 1556.72 107.447C1561.25 111.841 1566.51 115.237 1572.5 117.633C1578.63 120.03 1585.35 121.228 1592.67 121.228C1600 121.228 1606.79 119.897 1613.05 117.234C1619.3 114.438 1624.96 110.243 1630.02 104.651L1646.8 120.629C1640.28 128.219 1632.29 134.011 1622.83 138.005C1613.38 142 1602.86 143.997 1591.28 143.997ZM1698.28 142V86.6756L1704.08 102.654L1643.36 2.191H1671.12L1719.86 83.0805H1704.28L1753.41 2.191H1778.97L1718.26 102.654L1724.25 86.6756V142H1698.28Z" fill="white"/>
    </symbol>

    <symbol id="map" viewBox="0 0 979 537" fill="none" xmlns="http://www.w3.org/2000/svg">
        <path d="M587.119 483.721L532.34 524.381L530.935 537L514.081 520.175L484.584 521.577L485.989 494.937L477.561 483.721L469.133 458.483L460.706 459.885L443.851 436.05L370.812 440.256C370.812 440.256 325.865 392.585 289.346 372.956L224.735 393.987L223.33 517.371H209.284C209.284 517.371 186.81 483.721 179.788 482.319C174.169 480.917 155.91 490.731 147.482 497.741C141.864 493.535 143.268 476.71 143.268 472.504C141.863 466.895 123.604 454.277 116.581 451.473C109.558 448.668 101.13 419.225 95.512 412.214C91.2983 406.606 92.7029 399.595 102.535 402.399C112.367 405.204 108.153 384.172 117.986 381.368C127.818 379.966 137.65 379.966 147.482 374.358C151.696 372.956 157.314 358.935 157.314 351.924C155.909 343.512 146.077 333.697 146.077 333.697C110.963 323.883 84.2753 336.501 67.4202 350.522L40.7331 333.697L57.5883 330.893L33.7101 297.243H12.6412L14.0459 276.211L0 273.407L11.2366 246.768L9.83188 217.324L26.6872 199.097C26.6872 199.097 46.3513 218.726 51.9696 220.128C57.588 221.53 49.1607 192.086 49.1607 192.086L67.4202 186.478L68.8249 175.261L102.535 151.426L115.176 152.828C115.176 152.828 115.176 164.044 119.39 161.24C123.604 158.436 139.054 150.023 139.054 150.023L144.673 159.838H162.933L178.383 175.261L191.025 197.695L195.238 179.467L221.925 200.499C221.925 200.499 224.735 194.89 231.758 187.88C237.376 180.87 250.017 176.663 250.017 176.663L262.658 187.88L268.277 176.663C268.277 176.663 282.323 173.859 285.132 179.467C287.941 183.674 311.819 199.097 311.819 199.097L320.247 186.478C320.247 186.478 335.697 194.89 351.148 194.89C366.598 194.89 358.171 171.055 349.743 162.642C341.316 154.23 327.27 151.426 327.27 151.426C327.27 151.426 321.652 143.013 331.484 136.003C342.72 128.992 344.125 126.188 342.72 120.58C341.316 114.971 345.53 100.95 345.53 100.95L373.621 103.755L349.743 92.5379L355.361 84.1253L339.911 77.1149L349.743 60.2899L365.194 63.094L380.644 64.4962L412.95 51.8772L449.469 46.269L452.278 32.2481L519.699 21.0313L525.317 12.6189L536.554 0C536.554 0 547.791 11.2168 560.432 12.6189C573.073 15.4231 578.692 8.41262 582.905 8.41262C587.119 8.41262 584.31 21.0313 587.119 23.8355C591.333 26.6396 588.524 44.8668 589.928 56.0835C591.333 67.3003 612.402 50.4753 612.402 50.4753L625.043 63.094L658.753 60.2899C658.753 60.2899 653.135 67.3003 647.517 70.1044C641.898 72.9086 647.517 85.5275 647.517 85.5275L665.776 74.3107C665.776 74.3107 686.845 63.0941 714.937 47.6711C743.029 32.2482 727.578 49.0731 723.365 51.8772C719.151 56.0835 721.96 64.4962 721.96 64.4962C721.96 64.4962 755.67 95.342 758.479 98.1462C761.289 102.352 803.426 187.88 803.426 187.88C803.426 187.88 818.877 169.653 821.686 164.044C825.9 158.436 832.923 182.272 832.923 182.272L842.755 186.478L861.014 187.88C861.014 187.88 866.633 182.272 883.488 180.87C900.343 179.467 903.152 200.499 903.152 200.499L920.007 211.715C920.007 211.715 925.626 224.334 938.267 232.747C950.908 241.159 964.954 221.53 964.954 221.53C964.954 221.53 963.55 228.541 963.55 232.747C963.55 235.551 971.977 239.757 979 242.561L963.55 250.974L964.954 264.995L936.862 280.418C936.862 280.418 938.267 284.624 936.862 307.058C935.458 329.491 918.603 329.491 918.603 329.491L877.87 314.068L859.61 365.945L863.824 386.977L844.16 382.77L804.831 393.987L823.091 450.071L809.045 461.287V485.123L786.571 466.896L682.632 464.091L667.181 447.266L644.707 452.875L647.517 479.514L594.142 466.896L589.928 480.916L587.119 483.721Z" fill="white"/>
        <circle cx="694" cy="351" r="40" fill="#00A9C1"/>
        <path fill-rule="evenodd" clip-rule="evenodd" d="M693.158 366H689.852L683 349.412H687.989L691.596 359.529L699.951 337H705C701.093 346.647 697.246 356.294 693.339 366H693.158ZM698.268 361.118V365.765H703.016V361.118H698.268Z" fill="white"/>
        <circle cx="694" cy="401" r="5" fill="#00A9C1"/>
        <circle cx="694" cy="401" r="2" fill="white"/>
    </symbol>

    <symbol id="step" xmlns="http://www.w3.org/2000/svg" viewBox="0 0 19 25" fill="none">
        <path fill-rule="evenodd" clip-rule="evenodd" d="M8.77323 25H5.91803L0 10.6998H4.30874L7.4235 19.4219L14.6393 0H19C15.6257 8.31643 12.3033 16.6329 8.92895 25H8.77323Z" fill="#00A8C0"/>
    </symbol>

    <symbol id="phone" xmlns="http://www.w3.org/2000/svg" viewBox="0 0 25 25">
        <path d="M7.14316 2.54695C8.33379 3.41466 9.26087 4.59903 10.0525 5.73236L10.513 6.4032L10.9473 7.04382C11.1646 7.36125 11.2575 7.74752 11.2083 8.12903C11.1591 8.51054 10.9713 8.86062 10.6807 9.11257L8.64837 10.6219C8.55019 10.6928 8.48107 10.797 8.45387 10.915C8.42666 11.033 8.44322 11.1569 8.50045 11.2636C8.96087 12.1001 9.77962 13.3459 10.7171 14.2834C11.6557 15.2209 12.9598 16.0938 13.8546 16.6063C13.9668 16.6693 14.0989 16.6869 14.2236 16.6555C14.3484 16.6241 14.4564 16.5461 14.5255 16.4376L15.8484 14.424C16.0916 14.101 16.4504 13.8845 16.8496 13.8201C17.2488 13.7556 17.6575 13.8481 17.99 14.0782L18.6807 14.5563C19.9713 15.4522 21.3577 16.4699 22.4182 17.8272C22.5863 18.0436 22.6933 18.3012 22.7279 18.5732C22.7626 18.8451 22.7236 19.1213 22.615 19.373C21.7432 21.4074 19.5369 23.1397 17.2421 23.0553L16.9296 23.0376L16.6869 23.0167L16.4182 22.9855L16.1255 22.9459L15.8077 22.8938C15.7521 22.8838 15.6966 22.8734 15.6411 22.8626L15.2911 22.7876C15.2299 22.7741 15.1688 22.7602 15.1077 22.7459L14.7265 22.648L14.3255 22.5334L13.9067 22.398C11.9838 21.7459 9.54316 20.4647 7.039 17.9605C4.53587 15.4574 3.25462 13.0167 2.60254 11.0938L2.46712 10.6751L2.35254 10.274L2.25462 9.89278L2.17337 9.53236C2.1499 9.41948 2.12803 9.30628 2.10775 9.19278L2.05566 8.87507L2.014 8.58236L1.98379 8.31361L1.96295 8.07091L1.94629 7.75841C1.86191 5.47091 3.61295 3.24903 5.63795 2.38132C5.88168 2.27608 6.14858 2.23601 6.41247 2.26505C6.67635 2.29408 6.92815 2.39123 7.14316 2.54695ZM15.6171 6.29174L15.738 6.30528C16.4962 6.43903 17.1926 6.80939 17.7274 7.36328C18.2622 7.91717 18.608 8.62615 18.715 9.38861C18.7532 9.65234 18.6889 9.92068 18.5352 10.1384C18.3816 10.3561 18.1504 10.5067 17.8891 10.5592C17.6278 10.6116 17.3564 10.5619 17.1307 10.4203C16.9049 10.2787 16.742 10.056 16.6755 9.79799L16.6515 9.6782C16.6096 9.37934 16.482 9.09902 16.2842 8.8711C16.0864 8.64318 15.8269 8.47741 15.5369 8.39382L15.3755 8.35736C15.1139 8.311 14.8799 8.16646 14.7214 7.95331C14.5629 7.74015 14.4918 7.47448 14.5226 7.21064C14.5535 6.9468 14.684 6.70472 14.8875 6.53391C15.0909 6.3631 15.3519 6.27647 15.6171 6.29174ZM15.6255 3.12507C17.2831 3.12507 18.8728 3.78355 20.0449 4.95565C21.217 6.12776 21.8755 7.71747 21.8755 9.37507C21.8752 9.64057 21.7735 9.89594 21.5912 10.089C21.409 10.2821 21.1599 10.3982 20.8948 10.4138C20.6298 10.4294 20.3688 10.3431 20.1652 10.1727C19.9616 10.0023 19.8308 9.76059 19.7994 9.49695L19.7921 9.37507C19.7925 8.31718 19.3903 7.29878 18.6671 6.52666C17.9439 5.75454 16.954 5.28658 15.8984 5.21778L15.6255 5.20841C15.3492 5.20841 15.0842 5.09866 14.8889 4.90331C14.6935 4.70796 14.5838 4.44301 14.5838 4.16674C14.5838 3.89047 14.6935 3.62552 14.8889 3.43017C15.0842 3.23482 15.3492 3.12507 15.6255 3.12507Z" />
    </symbol>

    <symbol id="faq-plus" xmlns="http://www.w3.org/2000/svg" viewBox="0 0 50 50" fill="none">
        <rect width="50" height="50" rx="8" fill="#00A9C1" fill-opacity="0.1"/>
        <path d="M25 17L25 33" stroke="#00A9C1" stroke-width="2"/>
        <path d="M33 25L17 25" stroke="#00A9C1" stroke-width="2"/>
    </symbol>

    <symbol id="faq-minus" xmlns="http://www.w3.org/2000/svg" viewBox="0 0 50 50" fill="none">
        <rect width="50" height="50" rx="8" fill="#00A9C1" fill-opacity="0.1"/>
        <path d="M33 25L17 25" stroke="#00A9C1" stroke-width="2"/>
    </symbol>

    <symbol id="service-link" xmlns="http://www.w3.org/2000/svg" viewBox="0 0 50 50">
        <rect width="50" height="50" rx="8" />
        <path d="M20 30L30 20M30 20H20M30 20V30" stroke="white" stroke-width="2"/>
    </symbol>

    <symbol id="ya-pin" viewBox="0 0 80 95" fill="none" xmlns="http://www.w3.org/2000/svg">
        <circle cx="40" cy="40" r="40" fill="#00A9C1"/>
        <path fill-rule="evenodd" clip-rule="evenodd" d="M39.1585 55H35.8525L29 38.4118H33.9891L37.5956 48.5294L45.9508 26H51C47.0929 35.6471 43.2459 45.2941 39.3388 55H39.1585ZM44.2678 50.1177V54.7647H49.0164V50.1177H44.2678Z" fill="white"/>
        <circle cx="40" cy="90" r="5" fill="#00A9C1"/>
        <circle cx="40" cy="90" r="2" fill="white"/>
    </symbol>
</svg>
