<svg width="979" height="537" viewBox="0 0 979 537" fill="none" xmlns="http://www.w3.org/2000/svg">
<path d="M587.119 483.721L532.34 524.381L530.935 537L514.081 520.175L484.584 521.577L485.989 494.937L477.561 483.721L469.133 458.483L460.706 459.885L443.851 436.05L370.812 440.256C370.812 440.256 325.865 392.585 289.346 372.956L224.735 393.987L223.33 517.371H209.284C209.284 517.371 186.81 483.721 179.788 482.319C174.169 480.917 155.91 490.731 147.482 497.741C141.864 493.535 143.268 476.71 143.268 472.504C141.863 466.895 123.604 454.277 116.581 451.473C109.558 448.668 101.13 419.225 95.512 412.214C91.2983 406.606 92.7029 399.595 102.535 402.399C112.367 405.204 108.153 384.172 117.986 381.368C127.818 379.966 137.65 379.966 147.482 374.358C151.696 372.956 157.314 358.935 157.314 351.924C155.909 343.512 146.077 333.697 146.077 333.697C110.963 323.883 84.2753 336.501 67.4202 350.522L40.7331 333.697L57.5883 330.893L33.7101 297.243H12.6412L14.0459 276.211L0 273.407L11.2366 246.768L9.83188 217.324L26.6872 199.097C26.6872 199.097 46.3513 218.726 51.9696 220.128C57.588 221.53 49.1607 192.086 49.1607 192.086L67.4202 186.478L68.8249 175.261L102.535 151.426L115.176 152.828C115.176 152.828 115.176 164.044 119.39 161.24C123.604 158.436 139.054 150.023 139.054 150.023L144.673 159.838H162.933L178.383 175.261L191.025 197.695L195.238 179.467L221.925 200.499C221.925 200.499 224.735 194.89 231.758 187.88C237.376 180.87 250.017 176.663 250.017 176.663L262.658 187.88L268.277 176.663C268.277 176.663 282.323 173.859 285.132 179.467C287.941 183.674 311.819 199.097 311.819 199.097L320.247 186.478C320.247 186.478 335.697 194.89 351.148 194.89C366.598 194.89 358.171 171.055 349.743 162.642C341.316 154.23 327.27 151.426 327.27 151.426C327.27 151.426 321.652 143.013 331.484 136.003C342.72 128.992 344.125 126.188 342.72 120.58C341.316 114.971 345.53 100.95 345.53 100.95L373.621 103.755L349.743 92.5379L355.361 84.1253L339.911 77.1149L349.743 60.2899L365.194 63.094L380.644 64.4962L412.95 51.8772L449.469 46.269L452.278 32.2481L519.699 21.0313L525.317 12.6189L536.554 0C536.554 0 547.791 11.2168 560.432 12.6189C573.073 15.4231 578.692 8.41262 582.905 8.41262C587.119 8.41262 584.31 21.0313 587.119 23.8355C591.333 26.6396 588.524 44.8668 589.928 56.0835C591.333 67.3003 612.402 50.4753 612.402 50.4753L625.043 63.094L658.753 60.2899C658.753 60.2899 653.135 67.3003 647.517 70.1044C641.898 72.9086 647.517 85.5275 647.517 85.5275L665.776 74.3107C665.776 74.3107 686.845 63.0941 714.937 47.6711C743.029 32.2482 727.578 49.0731 723.365 51.8772C719.151 56.0835 721.96 64.4962 721.96 64.4962C721.96 64.4962 755.67 95.342 758.479 98.1462C761.289 102.352 803.426 187.88 803.426 187.88C803.426 187.88 818.877 169.653 821.686 164.044C825.9 158.436 832.923 182.272 832.923 182.272L842.755 186.478L861.014 187.88C861.014 187.88 866.633 182.272 883.488 180.87C900.343 179.467 903.152 200.499 903.152 200.499L920.007 211.715C920.007 211.715 925.626 224.334 938.267 232.747C950.908 241.159 964.954 221.53 964.954 221.53C964.954 221.53 963.55 228.541 963.55 232.747C963.55 235.551 971.977 239.757 979 242.561L963.55 250.974L964.954 264.995L936.862 280.418C936.862 280.418 938.267 284.624 936.862 307.058C935.458 329.491 918.603 329.491 918.603 329.491L877.87 314.068L859.61 365.945L863.824 386.977L844.16 382.77L804.831 393.987L823.091 450.071L809.045 461.287V485.123L786.571 466.896L682.632 464.091L667.181 447.266L644.707 452.875L647.517 479.514L594.142 466.896L589.928 480.916L587.119 483.721Z" fill="white"/>
<circle cx="694" cy="351" r="40" fill="#00A9C1"/>
<path fill-rule="evenodd" clip-rule="evenodd" d="M693.158 366H689.852L683 349.412H687.989L691.596 359.529L699.951 337H705C701.093 346.647 697.246 356.294 693.339 366H693.158ZM698.268 361.118V365.765H703.016V361.118H698.268Z" fill="white"/>
<circle cx="694" cy="401" r="5" fill="#00A9C1"/>
<circle cx="694" cy="401" r="2" fill="white"/>
</svg>
